M48
; DRILL file {KiCad (6.0.0)} date Wed Jul 27 19:10:37 2022
; FORMAT={-:-/ absolute / inch / decimal}
; #@! TF.CreationDate,2022-07-27T19:10:37+03:00
; #@! TF.GenerationSoftware,Kicad,Pcbnew,(6.0.0)
; #@! TF.FileFunction,Plated,1,2,PTH
FMAT,2
INCH
; #@! TA.AperFunction,Plated,PTH,ViaDrill
T1C0.0138
; #@! TA.AperFunction,Plated,PTH,ComponentDrill
T2C0.0138
; #@! TA.AperFunction,Plated,PTH,ViaDrill
T3C0.0157
; #@! TA.AperFunction,Plated,PTH,ComponentDrill
T4C0.0197
; #@! TA.AperFunction,Plated,PTH,ComponentDrill
T5C0.0236
; #@! TA.AperFunction,Plated,PTH,ComponentDrill
T6C0.0256
; #@! TA.AperFunction,Plated,PTH,ComponentDrill
T7C0.0394
; #@! TA.AperFunction,Plated,PTH,ComponentDrill
T8C0.0409
; #@! TA.AperFunction,Plated,PTH,ComponentDrill
T9C0.0579
; #@! TA.AperFunction,Plated,PTH,ComponentDrill
T10C0.0984
; #@! TA.AperFunction,Plated,PTH,ComponentDrill
T11C0.0984
%
G90
G05
T1
X1.7884Y-3.5047
X1.8386Y-3.5118
X1.8898Y-3.002
X1.9135Y-3.0248
X1.9144Y-1.8858
X1.937Y-2.9488
X1.9371Y-3.0018
X1.9529Y-2.9216
X1.9715Y-3.5157
X1.9872Y-3.0059
X2.0256Y-2.935
X2.0787Y-3.1752
X2.0804Y-3.2099
X2.0808Y-3.2414
X2.1053Y-2.8671
X2.1201Y-3.2549
X2.2923Y-3.1949
X2.3031Y-3.3602
X2.5453Y-3.1348
T2
X2.2766Y-3.2274
X2.2766Y-3.2776
X2.2766Y-3.3278
X2.3268Y-3.2274
X2.3268Y-3.2776
X2.3268Y-3.3278
X2.377Y-3.2274
X2.377Y-3.2776
X2.377Y-3.3278
T3
X1.4764Y-3.563
X1.6073Y-3.5778
X1.628Y-3.5394
X1.6654Y-3.5266
X1.6776Y-2.2685
X1.7313Y-2.8514
X1.7382Y-3.0069
X1.748Y-3.0984
X1.7864Y-2.0974
X1.8169Y-1.8632
X1.8258Y-3.373
X1.8868Y-3.2008
X1.9321Y-2.8474
X1.9331Y-2.3553
X1.938Y-2.19
X1.9587Y-3.9114
X1.9764Y-2.5925
X1.997Y-3.0738
X2.0138Y-3.4656
X2.0316Y-2.8297
X2.0316Y-2.8691
X2.0522Y-3.6339
X2.0541Y-3.4892
X2.0581Y-3.6831
X2.06Y-2.4902
X2.061Y-4.0768
X2.065Y-2.9763
X2.0787Y-2.3031
X2.0817Y-3.2795
X2.089Y-3.6063
X2.0965Y-4.4124
X2.0965Y-3.5482
X2.0994Y-2.4325
X2.1043Y-3.9026
X2.1049Y-3.5006
X2.124Y-3.5785
X2.1378Y-3.3779
X2.1535Y-2.939
X2.1821Y-3.5502
X2.1821Y-3.6004
X2.185Y-5.0374
X2.2106Y-4.9134
X2.2215Y-4.7992
X2.247Y-1.6703
X2.2559Y-3.7549
X2.2667Y-4.1014
X2.2687Y-2.8642
X2.2812Y-3.9791
X2.2923Y-3.5108
X2.312Y-4.2874
X2.3268Y-2.3366
X2.3317Y-2.9764
X2.3388Y-3.0456
X2.3622Y-3.9961
X2.3642Y-2.3612
X2.374Y-5.0079
X2.378Y-3.564
X2.4646Y-2.1447
X2.4724Y-3.7451
X2.4951Y-3.622
X2.5571Y-2.9567
X2.5827Y-3.439
X2.6575Y-3.7638
X2.6585Y-2.0807
X2.6654Y-1.9774
X2.7037Y-3.2785
X2.7119Y-3.545
X2.7136Y-3.5856
X2.8307Y-1.9961
X2.936Y-3.2293
X2.9636Y-2.875
X2.9783Y-3.5443
X3.0778Y-2.7441
X3.1358Y-2.7874
X3.1417Y-1.7913
X3.1781Y-2.748
X3.2067Y-3.5659
X3.251Y-3.3297
X3.2943Y-2.7874
X3.5413Y-1.8907
X3.6821Y-2.9154
X4.0965Y-1.8593
X4.122Y-4.8671
X4.1594Y-5.0295
X4.2953Y-1.6742
X4.3268Y-2.0059
X4.623Y-1.7431
X5.0089Y-4.7923
X5.0118Y-1.9193
X5.2618Y-2.9242
X5.6014Y-1.8445
X5.689Y-1.6791
X5.8346Y-2.0069
X6.1102Y-1.7077
X6.1289Y-4.874
X6.1654Y-5.0295
X6.3701Y-4.9557
X6.3898Y-4.8012
X6.4459Y-5.0591
X6.4911Y-1.7953
X6.5079Y-5.1545
X6.9843Y-2.44
X7.2224Y-1.8711
X7.3917Y-4.7293
X7.3967Y-5.0295
X7.8553Y-1.8553
X7.9055Y-3.5778
X7.94Y-4.6329
X7.998Y-4.7756
X8.0748Y-2.0079
X8.0748Y-4.9409
X8.3268Y-3.0502
X8.3642Y-1.7185
X8.3967Y-5.1722
X8.6693Y-4.6988
X8.7057Y-1.8878
X8.998Y-4.9724
X9.0955Y-2.9882
X9.3169Y-4.6713
X9.3425Y-1.8356
X9.44Y-1.6791
X9.5669Y-2.001
X9.5906Y-5.0295
X9.7333Y-4.9626
X9.7736Y-5.1683
X9.8307Y-2.9577
X9.874Y-1.7894
X10.2156Y-1.8858
X10.8366Y-1.8287
X10.9734Y-2.0187
X11.0128Y-1.7736
X11.0965Y-1.9921
X11.1644Y-2.0453
X11.2579Y-2.0404
X11.2756Y-2.4134
X11.2854Y-2.1388
X11.2855Y-2.8199
X11.376Y-5.0089
X11.3799Y-2.8248
X11.4104Y-4.8711
X11.5089Y-3.5866
X11.6516Y-1.6417
X11.7274Y-3.9213
X11.7441Y-4.2569
X11.7746Y-3.9341
X11.8081Y-3.503
X11.8346Y-2.9665
X11.8406Y-4.1053
X11.9173Y-3.0837
X11.9183Y-2.8524
X11.9843Y-3.3533
X12.1152Y-3.4104
T4
X2.1668Y-2.6784
X2.1933Y-2.6144
X2.1933Y-2.7424
X2.2573Y-2.5878
X2.2573Y-2.7689
X2.3214Y-2.6144
X2.3214Y-2.7424
X2.3479Y-2.6784
T6
X11.4454Y-2.7722
X11.4504Y-2.5872
X11.5034Y-2.5878
X11.5034Y-2.7689
X11.5604Y-2.5872
X11.5604Y-2.7722
T7
X1.3602Y-3.2254
X1.3602Y-3.3254
X1.3602Y-3.4254
X1.3602Y-3.5254
X1.3602Y-3.6254
X2.9778Y-2.4813
X3.0778Y-2.4813
T8
X1.575Y-2.1375
X1.6687Y-3.6375
X1.675Y-2.1375
X1.7688Y-3.6375
X1.8562Y-3.6375
X1.9563Y-3.6375
T9
X1.475Y-1.8375
X1.5266Y-1.78
X1.5687Y-3.3375
X1.5687Y-4.0875
X1.6203Y-3.28
X1.6203Y-4.03
X1.6625Y-2.5875
X1.6625Y-4.8375
X1.7141Y-2.53
X1.7141Y-4.78
X1.7234Y-1.7603
X1.725Y-1.7375
X1.7562Y-3.3375
X1.8078Y-3.28
X1.8172Y-3.2603
X1.8172Y-4.0103
X1.8187Y-3.2375
X1.8187Y-3.9875
X1.9109Y-2.5103
X1.9109Y-4.7603
X1.9125Y-2.4875
X1.9125Y-4.7375
X1.9437Y-4.0875
X1.9953Y-4.03
X2.0047Y-3.2603
X2.0063Y-3.2375
X2.1922Y-4.0103
X2.1938Y-3.9875
X2.225Y-1.8375
X2.2766Y-1.78
X2.4125Y-4.0875
X2.4641Y-4.03
X2.4734Y-1.7603
X2.475Y-1.7375
X2.6Y-2.5875
X2.6Y-4.8375
X2.6516Y-2.53
X2.6516Y-4.78
X2.6609Y-4.0103
X2.6625Y-3.9875
X2.7875Y-3.3375
X2.8391Y-3.28
X2.8484Y-2.5103
X2.8484Y-4.7603
X2.85Y-2.4875
X2.85Y-4.7375
X2.975Y-1.8375
X3.0266Y-1.78
X3.0359Y-3.2603
X3.0375Y-3.2375
X3.1625Y-4.0875
X3.2141Y-4.03
X3.2234Y-1.7603
X3.225Y-1.7375
X3.35Y-2.5875
X3.4016Y-2.53
X3.4109Y-4.0103
X3.4125Y-3.9875
X3.5375Y-3.3375
X3.5375Y-4.8375
X3.5891Y-3.28
X3.5891Y-4.78
X3.5984Y-2.5103
X3.6Y-2.4875
X3.725Y-1.8375
X3.7766Y-1.78
X3.7859Y-3.2603
X3.7859Y-4.7603
X3.7875Y-3.2375
X3.7875Y-4.7375
X3.9125Y-4.0875
X3.9641Y-4.03
X3.9734Y-1.7603
X3.975Y-1.7375
X4.1Y-2.5875
X4.1516Y-2.53
X4.1609Y-4.0103
X4.1625Y-3.9875
X4.2875Y-3.3375
X4.3391Y-3.28
X4.3484Y-2.5103
X4.35Y-2.4875
X4.475Y-1.8375
X4.475Y-4.8375
X4.5266Y-1.78
X4.5266Y-4.78
X4.5359Y-3.2603
X4.5375Y-3.2375
X4.6625Y-4.0875
X4.7141Y-4.03
X4.7234Y-1.7603
X4.7234Y-4.7603
X4.725Y-1.7375
X4.725Y-4.7375
X4.85Y-2.5875
X4.9016Y-2.53
X4.9109Y-4.0103
X4.9125Y-3.9875
X5.0375Y-3.3375
X5.0891Y-3.28
X5.0984Y-2.5103
X5.1Y-2.4875
X5.225Y-1.8375
X5.225Y-4.8375
X5.2766Y-1.78
X5.2766Y-4.78
X5.2859Y-3.2603
X5.2875Y-3.2375
X5.4125Y-4.0875
X5.4641Y-4.03
X5.4734Y-1.7603
X5.4734Y-4.7603
X5.475Y-1.7375
X5.475Y-4.7375
X5.6Y-2.5875
X5.6516Y-2.53
X5.6609Y-4.0103
X5.6625Y-3.9875
X5.6937Y-4.8375
X5.7453Y-4.78
X5.7875Y-3.3375
X5.8391Y-3.28
X5.8484Y-2.5103
X5.85Y-2.4875
X5.9422Y-4.7603
X5.9437Y-4.7375
X5.975Y-1.8375
X6.0266Y-1.78
X6.0359Y-3.2603
X6.0375Y-3.2375
X6.1625Y-4.0875
X6.2141Y-4.03
X6.2234Y-1.7603
X6.225Y-1.7375
X6.35Y-2.5875
X6.4016Y-2.53
X6.4109Y-4.0103
X6.4125Y-3.9875
X6.5375Y-3.3375
X6.5891Y-3.28
X6.5984Y-2.5103
X6.6Y-2.4875
X6.725Y-1.8375
X6.725Y-4.8375
X6.725Y-4.8375
X6.725Y-4.8375
X6.7766Y-1.78
X6.7766Y-4.78
X6.7766Y-4.78
X6.7766Y-4.78
X6.7859Y-3.2603
X6.7875Y-3.2375
X6.9125Y-4.0875
X6.9641Y-4.03
X6.9734Y-1.7603
X6.9734Y-4.7603
X6.9734Y-4.7603
X6.9734Y-4.7603
X6.975Y-1.7375
X6.975Y-4.7375
X6.975Y-4.7375
X6.975Y-4.7375
X7.1Y-2.5875
X7.1516Y-2.53
X7.1609Y-4.0103
X7.1625Y-3.9875
X7.2875Y-3.3375
X7.3391Y-3.28
X7.3484Y-2.5103
X7.35Y-2.4875
X7.475Y-1.8375
X7.5266Y-1.78
X7.5359Y-3.2603
X7.5375Y-3.2375
X7.5687Y-4.8375
X7.6203Y-4.78
X7.6625Y-4.0875
X7.7141Y-4.03
X7.7234Y-1.7603
X7.725Y-1.7375
X7.8172Y-4.7603
X7.8187Y-4.7375
X7.85Y-2.5875
X7.9016Y-2.53
X7.9109Y-4.0103
X7.9125Y-3.9875
X8.0375Y-3.3375
X8.0891Y-3.28
X8.0984Y-2.5103
X8.1Y-2.4875
X8.225Y-1.8375
X8.225Y-4.8375
X8.2766Y-1.78
X8.2766Y-4.78
X8.2859Y-3.2603
X8.2875Y-3.2375
X8.4125Y-4.0875
X8.4641Y-4.03
X8.4734Y-1.7603
X8.4734Y-4.7603
X8.475Y-1.7375
X8.475Y-4.7375
X8.6Y-2.5875
X8.6516Y-2.53
X8.6609Y-4.0103
X8.6625Y-3.9875
X8.7875Y-3.3375
X8.8391Y-3.28
X8.8484Y-2.5103
X8.85Y-2.4875
X8.975Y-1.8375
X8.975Y-4.8375
X9.0266Y-1.78
X9.0266Y-4.78
X9.0359Y-3.2603
X9.0375Y-3.2375
X9.1625Y-4.0875
X9.2141Y-4.03
X9.2234Y-1.7603
X9.2234Y-4.7603
X9.225Y-1.7375
X9.225Y-4.7375
X9.35Y-2.5875
X9.4016Y-2.53
X9.4109Y-4.0103
X9.4125Y-3.9875
X9.5375Y-3.3375
X9.5891Y-3.28
X9.5984Y-2.5103
X9.6Y-2.4875
X9.725Y-1.8375
X9.7766Y-1.78
X9.7859Y-3.2603
X9.7875Y-3.2375
X9.9125Y-4.0875
X9.9125Y-4.8375
X9.9641Y-4.03
X9.9641Y-4.78
X9.9734Y-1.7603
X9.975Y-1.7375
X10.1Y-2.5875
X10.1516Y-2.53
X10.1609Y-4.0103
X10.1609Y-4.7603
X10.1625Y-3.9875
X10.1625Y-4.7375
X10.2875Y-3.3375
X10.3391Y-3.28
X10.3484Y-2.5103
X10.35Y-2.4875
X10.475Y-1.8375
X10.5266Y-1.78
X10.5359Y-3.2603
X10.5375Y-3.2375
X10.7234Y-1.7603
X10.725Y-1.7375
X10.85Y-2.5875
X10.85Y-4.8375
X10.9016Y-2.53
X10.9016Y-4.78
X10.9437Y-4.0875
X10.9953Y-4.03
X11.0375Y-3.3375
X11.0891Y-3.28
X11.0984Y-2.5103
X11.0984Y-4.7603
X11.1Y-2.4875
X11.1Y-4.7375
X11.1922Y-4.0103
X11.1937Y-3.9875
X11.225Y-1.8375
X11.2766Y-1.78
X11.2859Y-3.2603
X11.2875Y-3.2375
X11.3187Y-4.0875
X11.3703Y-4.03
X11.4734Y-1.7603
X11.475Y-1.7375
X11.5062Y-3.3375
X11.5578Y-3.28
X11.5672Y-4.0103
X11.5687Y-3.9875
X11.6Y-1.8375
X11.6516Y-1.78
X11.7547Y-3.2603
X11.7562Y-3.2375
X11.7875Y-2.5875
X11.7875Y-4.8375
X11.8391Y-2.53
X11.8391Y-4.78
X11.8484Y-1.7603
X11.85Y-1.7375
X11.975Y-1.8375
X11.975Y-4.0875
X12.0266Y-1.78
X12.0266Y-4.03
X12.0359Y-2.5103
X12.0359Y-4.7603
X12.0375Y-2.4875
X12.0375Y-4.7375
X12.1312Y-2.9125
X12.1887Y-2.9641
X12.2084Y-3.1609
X12.2234Y-1.7603
X12.2234Y-4.0103
X12.225Y-1.7375
X12.225Y-3.9875
X12.2312Y-3.1625
T11
X2.2573Y-2.6784
T5
G00X1.8161Y-1.6019
M15
G01X1.8161Y-1.6255
M16
G05
G00X1.8161Y-1.7566
M15
G01X1.8161Y-1.7999
M16
G05
G00X2.1563Y-1.6019
M15
G01X2.1563Y-1.6255
M16
G05
G00X2.1563Y-1.7566
M15
G01X2.1563Y-1.7999
M16
G05
T10
G00X6.2632Y-3.4304
M15
G01X6.3617Y-3.4304
M16
G05
G00X8.716Y-4.9343
M15
G01X8.8145Y-4.9343
M16
G05
G00X11.4541Y-2.6784
M15
G01X11.5526Y-2.6784
M16
G05
T0
M30
