M48
; DRILL file {KiCad (6.0.0)} date Sun Jul 31 19:44:41 2022
; FORMAT={-:-/ absolute / inch / decimal}
; #@! TF.CreationDate,2022-07-31T19:44:41+03:00
; #@! TF.GenerationSoftware,Kicad,Pcbnew,(6.0.0)
; #@! TF.FileFunction,NonPlated,1,2,NPTH
FMAT,2
INCH
; #@! TA.AperFunction,NonPlated,NPTH,ComponentDrill
T1C0.0256
; #@! TA.AperFunction,NonPlated,NPTH,ComponentDrill
T2C0.0670
; #@! TA.AperFunction,NonPlated,NPTH,ComponentDrill
T3C0.0689
; #@! TA.AperFunction,NonPlated,NPTH,ComponentDrill
T4C0.1200
; #@! TA.AperFunction,NonPlated,NPTH,ComponentDrill
T5C0.1570
%
G90
G05
T1
X1.8724Y-1.7574
X2.1Y-1.7574
T2
X12.0312Y-2.8625
X12.0312Y-3.2625
T3
X1.425Y-1.9375
X1.5188Y-3.4375
X1.5188Y-4.1875
X1.6125Y-2.6875
X1.6125Y-4.9375
X1.7063Y-3.4375
X1.825Y-1.9375
X1.8938Y-4.1875
X1.9187Y-3.4375
X1.9187Y-4.1875
X2.0125Y-2.6875
X2.0125Y-4.9375
X2.1062Y-3.4375
X2.175Y-1.9375
X2.2937Y-4.1875
X2.3625Y-4.1875
X2.55Y-2.6875
X2.55Y-4.9375
X2.575Y-1.9375
X2.7375Y-3.4375
X2.7625Y-4.1875
X2.925Y-1.9375
X2.95Y-2.6875
X2.95Y-4.9375
X3.1125Y-4.1875
X3.1375Y-3.4375
X3.3Y-2.6875
X3.325Y-1.9375
X3.4875Y-3.4375
X3.4875Y-4.9375
X3.5125Y-4.1875
X3.675Y-1.9375
X3.7Y-2.6875
X3.8625Y-4.1875
X3.8875Y-3.4375
X3.8875Y-4.9375
X4.05Y-2.6875
X4.075Y-1.9375
X4.2375Y-3.4375
X4.2625Y-4.1875
X4.425Y-1.9375
X4.425Y-4.9375
X4.45Y-2.6875
X4.6125Y-4.1875
X4.6375Y-3.4375
X4.8Y-2.6875
X4.825Y-1.9375
X4.825Y-4.9375
X4.9875Y-3.4375
X5.0125Y-4.1875
X5.175Y-1.9375
X5.175Y-4.9375
X5.2Y-2.6875
X5.3625Y-4.1875
X5.3875Y-3.4375
X5.55Y-2.6875
X5.575Y-1.9375
X5.575Y-4.9375
X5.6437Y-4.9375
X5.7375Y-3.4375
X5.7625Y-4.1875
X5.925Y-1.9375
X5.95Y-2.6875
X6.0438Y-4.9375
X6.1125Y-4.1875
X6.1375Y-3.4375
X6.3Y-2.6875
X6.325Y-1.9375
X6.4875Y-3.4375
X6.5125Y-4.1875
X6.675Y-1.9375
X6.675Y-4.9375
X6.675Y-4.9375
X6.675Y-4.9375
X6.7Y-2.6875
X6.8625Y-4.1875
X6.8875Y-3.4375
X7.05Y-2.6875
X7.075Y-1.9375
X7.075Y-4.9375
X7.075Y-4.9375
X7.075Y-4.9375
X7.2375Y-3.4375
X7.2625Y-4.1875
X7.425Y-1.9375
X7.45Y-2.6875
X7.5187Y-4.9375
X7.6125Y-4.1875
X7.6375Y-3.4375
X7.8Y-2.6875
X7.825Y-1.9375
X7.9188Y-4.9375
X7.9875Y-3.4375
X8.0125Y-4.1875
X8.175Y-1.9375
X8.175Y-4.9375
X8.2Y-2.6875
X8.3625Y-4.1875
X8.3875Y-3.4375
X8.55Y-2.6875
X8.575Y-1.9375
X8.575Y-4.9375
X8.7375Y-3.4375
X8.7625Y-4.1875
X8.925Y-1.9375
X8.925Y-4.9375
X8.95Y-2.6875
X9.1125Y-4.1875
X9.1375Y-3.4375
X9.3Y-2.6875
X9.325Y-1.9375
X9.325Y-4.9375
X9.4875Y-3.4375
X9.5125Y-4.1875
X9.675Y-1.9375
X9.7Y-2.6875
X9.8625Y-4.1875
X9.8625Y-4.9375
X9.8875Y-3.4375
X10.05Y-2.6875
X10.075Y-1.9375
X10.2375Y-3.4375
X10.2625Y-4.1875
X10.2625Y-4.9375
X10.425Y-1.9375
X10.45Y-2.6875
X10.6375Y-3.4375
X10.8Y-2.6875
X10.8Y-4.9375
X10.825Y-1.9375
X10.8937Y-4.1875
X10.9875Y-3.4375
X11.175Y-1.9375
X11.2Y-2.6875
X11.2Y-4.9375
X11.2687Y-4.1875
X11.2937Y-4.1875
X11.3875Y-3.4375
X11.4562Y-3.4375
X11.55Y-1.9375
X11.575Y-1.9375
X11.6687Y-4.1875
X11.7375Y-2.6875
X11.7375Y-4.9375
X11.8562Y-3.4375
X11.925Y-1.9375
X11.925Y-4.1875
X11.95Y-1.9375
X12.1375Y-2.6875
X12.1375Y-4.9375
X12.325Y-1.9375
X12.325Y-4.1875
T4
X1.6238Y-3.9125
X2.5637Y-3.9125
X4.25Y-5.2125
X4.625Y-5.2125
X4.625Y-5.2125
X5.3738Y-5.2125
X6.125Y-5.2125
X6.3137Y-5.2125
X7.2488Y-5.2125
X7.625Y-5.2125
X8.1888Y-5.2125
X9.125Y-5.2125
X9.125Y-5.2125
X9.5Y-5.2125
X10.9987Y-3.9125
X11.1862Y-3.1625
X11.28Y-1.6625
X11.9387Y-3.9125
X12.1262Y-3.1625
X12.22Y-1.6625
X12.3063Y-2.5925
X12.3063Y-3.5325
T5
X1.6238Y-4.5125
X1.625Y-1.9375
X1.7188Y-3.4375
X1.7188Y-4.1875
X1.8125Y-2.6875
X1.8125Y-4.9375
X1.9062Y-3.4375
X2.0938Y-4.1875
X2.375Y-1.9375
X2.5625Y-4.1875
X2.5637Y-4.5125
X2.75Y-2.6875
X2.75Y-4.9375
X2.9375Y-3.4375
X3.125Y-1.9375
X3.3125Y-4.1875
X3.5Y-2.6875
X3.6875Y-3.4375
X3.6875Y-4.9375
X3.875Y-1.9375
X4.0625Y-4.1875
X4.25Y-2.6875
X4.25Y-4.6125
X4.4375Y-3.4375
X4.625Y-1.9375
X4.625Y-4.6125
X4.625Y-4.6125
X4.625Y-4.9375
X4.8125Y-4.1875
X5.0Y-2.6875
X5.1875Y-3.4375
X5.3738Y-4.6125
X5.375Y-1.9375
X5.375Y-4.9375
X5.5625Y-4.1875
X5.75Y-2.6875
X5.8438Y-4.9375
X5.9375Y-3.4375
X6.125Y-1.9375
X6.125Y-4.6125
X6.3125Y-4.1875
X6.3137Y-4.6125
X6.5Y-2.6875
X6.6875Y-3.4375
X6.875Y-1.9375
X6.875Y-4.9375
X6.875Y-4.9375
X6.875Y-4.9375
X7.0625Y-4.1875
X7.2488Y-4.6125
X7.25Y-2.6875
X7.4375Y-3.4375
X7.625Y-1.9375
X7.625Y-4.6125
X7.7188Y-4.9375
X7.8125Y-4.1875
X8.0Y-2.6875
X8.1875Y-3.4375
X8.1888Y-4.6125
X8.375Y-1.9375
X8.375Y-4.9375
X8.5625Y-4.1875
X8.75Y-2.6875
X8.9375Y-3.4375
X9.125Y-1.9375
X9.125Y-4.6125
X9.125Y-4.6125
X9.125Y-4.9375
X9.3125Y-4.1875
X9.5Y-2.6875
X9.5Y-4.6125
X9.6875Y-3.4375
X9.875Y-1.9375
X10.0625Y-4.1875
X10.0625Y-4.9375
X10.25Y-2.6875
X10.4375Y-3.4375
X10.625Y-1.9375
X10.9987Y-4.5125
X11.0Y-2.6875
X11.0Y-4.9375
X11.0938Y-4.1875
X11.1862Y-3.7625
X11.1875Y-3.4375
X11.28Y-2.2625
X11.375Y-1.9375
X11.4688Y-4.1875
X11.6562Y-3.4375
X11.7062Y-2.5925
X11.7062Y-3.5325
X11.75Y-1.9375
X11.9375Y-2.6875
X11.9375Y-4.9375
X11.9387Y-4.5125
X12.0312Y-3.0625
X12.125Y-1.9375
X12.125Y-4.1875
X12.1262Y-3.7625
X12.22Y-2.2625
T0
M30
