%TF.GenerationSoftware,KiCad,Pcbnew,(6.0.0)*%
%TF.CreationDate,2022-08-01T23:38:05+03:00*%
%TF.ProjectId,SST60,53535436-302e-46b6-9963-61645f706362,0.1*%
%TF.SameCoordinates,Original*%
%TF.FileFunction,Legend,Bot*%
%TF.FilePolarity,Positive*%
%FSLAX46Y46*%
G04 Gerber Fmt 4.6, Leading zero omitted, Abs format (unit mm)*
G04 Created by KiCad (PCBNEW (6.0.0)) date 2022-08-01 23:38:05*
%MOMM*%
%LPD*%
G01*
G04 APERTURE LIST*
G04 Aperture macros list*
%AMRoundRect*
0 Rectangle with rounded corners*
0 $1 Rounding radius*
0 $2 $3 $4 $5 $6 $7 $8 $9 X,Y pos of 4 corners*
0 Add a 4 corners polygon primitive as box body*
4,1,4,$2,$3,$4,$5,$6,$7,$8,$9,$2,$3,0*
0 Add four circle primitives for the rounded corners*
1,1,$1+$1,$2,$3*
1,1,$1+$1,$4,$5*
1,1,$1+$1,$6,$7*
1,1,$1+$1,$8,$9*
0 Add four rect primitives between the rounded corners*
20,1,$1+$1,$2,$3,$4,$5,0*
20,1,$1+$1,$4,$5,$6,$7,0*
20,1,$1+$1,$6,$7,$8,$9,0*
20,1,$1+$1,$8,$9,$2,$3,0*%
%AMHorizOval*
0 Thick line with rounded ends*
0 $1 width*
0 $2 $3 position (X,Y) of the first rounded end (center of the circle)*
0 $4 $5 position (X,Y) of the second rounded end (center of the circle)*
0 Add line between two ends*
20,1,$1,$2,$3,$4,$5,0*
0 Add two circle primitives to create the rounded ends*
1,1,$1,$2,$3*
1,1,$1,$4,$5*%
G04 Aperture macros list end*
%ADD10C,0.150000*%
%ADD11C,0.120000*%
%ADD12C,0.100000*%
%ADD13C,1.750000*%
%ADD14C,3.987800*%
%ADD15C,2.250000*%
%ADD16HorizOval,2.250000X0.655001X0.730000X-0.655001X-0.730000X0*%
%ADD17HorizOval,2.250000X0.020000X0.290000X-0.020000X-0.290000X0*%
%ADD18C,1.905000*%
%ADD19R,1.905000X1.905000*%
%ADD20C,1.000000*%
%ADD21C,7.001300*%
%ADD22C,7.000240*%
%ADD23C,3.048000*%
%ADD24C,1.701800*%
%ADD25HorizOval,2.250000X0.290000X-0.019999X-0.290000X0.019999X0*%
%ADD26HorizOval,2.250000X0.730004X-0.654995X-0.730004X0.654995X0*%
%ADD27HorizOval,2.250000X0.655008X0.729993X-0.655008X-0.729993X0*%
%ADD28HorizOval,2.250000X0.020004X0.290000X-0.020004X-0.290000X0*%
%ADD29R,0.700000X1.000000*%
%ADD30R,0.700000X0.600000*%
%ADD31R,1.200000X0.900000*%
%ADD32RoundRect,0.140000X-0.170000X0.140000X-0.170000X-0.140000X0.170000X-0.140000X0.170000X0.140000X0*%
%ADD33RoundRect,0.175000X0.175000X0.175000X-0.175000X0.175000X-0.175000X-0.175000X0.175000X-0.175000X0*%
%ADD34R,0.700000X0.700000*%
%ADD35RoundRect,0.175000X-0.175000X-0.175000X0.175000X-0.175000X0.175000X0.175000X-0.175000X0.175000X0*%
%ADD36RoundRect,0.140000X0.170000X-0.140000X0.170000X0.140000X-0.170000X0.140000X-0.170000X-0.140000X0*%
%ADD37RoundRect,0.140000X0.140000X0.170000X-0.140000X0.170000X-0.140000X-0.170000X0.140000X-0.170000X0*%
%ADD38RoundRect,0.175000X-0.175000X0.175000X-0.175000X-0.175000X0.175000X-0.175000X0.175000X0.175000X0*%
%ADD39RoundRect,0.135000X0.185000X-0.135000X0.185000X0.135000X-0.185000X0.135000X-0.185000X-0.135000X0*%
%ADD40RoundRect,0.135000X0.135000X0.185000X-0.135000X0.185000X-0.135000X-0.185000X0.135000X-0.185000X0*%
%ADD41C,0.750000*%
%ADD42RoundRect,0.050000X-0.300000X-0.725000X0.300000X-0.725000X0.300000X0.725000X-0.300000X0.725000X0*%
%ADD43RoundRect,0.050000X-0.150000X-0.725000X0.150000X-0.725000X0.150000X0.725000X-0.150000X0.725000X0*%
%ADD44O,1.100000X1.700000*%
%ADD45O,1.100000X2.200000*%
%ADD46RoundRect,0.050000X0.387500X0.050000X-0.387500X0.050000X-0.387500X-0.050000X0.387500X-0.050000X0*%
%ADD47RoundRect,0.050000X0.050000X0.387500X-0.050000X0.387500X-0.050000X-0.387500X0.050000X-0.387500X0*%
%ADD48RoundRect,0.144000X1.456000X1.456000X-1.456000X1.456000X-1.456000X-1.456000X1.456000X-1.456000X0*%
%ADD49RoundRect,0.135000X-0.185000X0.135000X-0.185000X-0.135000X0.185000X-0.135000X0.185000X0.135000X0*%
%ADD50R,1.700000X1.700000*%
%ADD51O,1.700000X1.700000*%
%ADD52RoundRect,0.150000X-0.625000X0.150000X-0.625000X-0.150000X0.625000X-0.150000X0.625000X0.150000X0*%
%ADD53RoundRect,0.250000X-0.650000X0.350000X-0.650000X-0.350000X0.650000X-0.350000X0.650000X0.350000X0*%
%ADD54RoundRect,0.135000X-0.135000X-0.185000X0.135000X-0.185000X0.135000X0.185000X-0.135000X0.185000X0*%
%ADD55RoundRect,0.175000X0.175000X-0.175000X0.175000X0.175000X-0.175000X0.175000X-0.175000X-0.175000X0*%
%ADD56R,1.400000X1.200000*%
%ADD57RoundRect,0.150000X0.150000X-0.587500X0.150000X0.587500X-0.150000X0.587500X-0.150000X-0.587500X0*%
%ADD58RoundRect,0.150000X-0.150000X0.650000X-0.150000X-0.650000X0.150000X-0.650000X0.150000X0.650000X0*%
%ADD59RoundRect,0.243750X-0.456250X0.243750X-0.456250X-0.243750X0.456250X-0.243750X0.456250X0.243750X0*%
%ADD60RoundRect,0.140000X-0.219203X-0.021213X-0.021213X-0.219203X0.219203X0.021213X0.021213X0.219203X0*%
G04 APERTURE END LIST*
D10*
X241892857Y-130452380D02*
X242464285Y-130452380D01*
X242178571Y-130452380D02*
X242178571Y-129452380D01*
X242273809Y-129595238D01*
X242369047Y-129690476D01*
X242464285Y-129738095D01*
X241273809Y-129452380D02*
X241178571Y-129452380D01*
X241083333Y-129500000D01*
X241035714Y-129547619D01*
X240988095Y-129642857D01*
X240940476Y-129833333D01*
X240940476Y-130071428D01*
X240988095Y-130261904D01*
X241035714Y-130357142D01*
X241083333Y-130404761D01*
X241178571Y-130452380D01*
X241273809Y-130452380D01*
X241369047Y-130404761D01*
X241416666Y-130357142D01*
X241464285Y-130261904D01*
X241511904Y-130071428D01*
X241511904Y-129833333D01*
X241464285Y-129642857D01*
X241416666Y-129547619D01*
X241369047Y-129500000D01*
X241273809Y-129452380D01*
X240083333Y-129785714D02*
X240083333Y-130452380D01*
X240511904Y-129785714D02*
X240511904Y-130309523D01*
X240464285Y-130404761D01*
X240369047Y-130452380D01*
X240226190Y-130452380D01*
X240130952Y-130404761D01*
X240083333Y-130357142D01*
X108642857Y-130452380D02*
X109214285Y-130452380D01*
X108928571Y-130452380D02*
X108928571Y-129452380D01*
X109023809Y-129595238D01*
X109119047Y-129690476D01*
X109214285Y-129738095D01*
X108023809Y-129452380D02*
X107928571Y-129452380D01*
X107833333Y-129500000D01*
X107785714Y-129547619D01*
X107738095Y-129642857D01*
X107690476Y-129833333D01*
X107690476Y-130071428D01*
X107738095Y-130261904D01*
X107785714Y-130357142D01*
X107833333Y-130404761D01*
X107928571Y-130452380D01*
X108023809Y-130452380D01*
X108119047Y-130404761D01*
X108166666Y-130357142D01*
X108214285Y-130261904D01*
X108261904Y-130071428D01*
X108261904Y-129833333D01*
X108214285Y-129642857D01*
X108166666Y-129547619D01*
X108119047Y-129500000D01*
X108023809Y-129452380D01*
X106833333Y-129785714D02*
X106833333Y-130452380D01*
X107261904Y-129785714D02*
X107261904Y-130309523D01*
X107214285Y-130404761D01*
X107119047Y-130452380D01*
X106976190Y-130452380D01*
X106880952Y-130404761D01*
X106833333Y-130357142D01*
%TO.C,1.50u*%
X47394642Y-129039880D02*
X47966071Y-129039880D01*
X47680357Y-129039880D02*
X47680357Y-128039880D01*
X47775595Y-128182738D01*
X47870833Y-128277976D01*
X47966071Y-128325595D01*
X46966071Y-128944642D02*
X46918452Y-128992261D01*
X46966071Y-129039880D01*
X47013690Y-128992261D01*
X46966071Y-128944642D01*
X46966071Y-129039880D01*
X46013690Y-128039880D02*
X46489880Y-128039880D01*
X46537500Y-128516071D01*
X46489880Y-128468452D01*
X46394642Y-128420833D01*
X46156547Y-128420833D01*
X46061309Y-128468452D01*
X46013690Y-128516071D01*
X45966071Y-128611309D01*
X45966071Y-128849404D01*
X46013690Y-128944642D01*
X46061309Y-128992261D01*
X46156547Y-129039880D01*
X46394642Y-129039880D01*
X46489880Y-128992261D01*
X46537500Y-128944642D01*
X45347023Y-128039880D02*
X45251785Y-128039880D01*
X45156547Y-128087500D01*
X45108928Y-128135119D01*
X45061309Y-128230357D01*
X45013690Y-128420833D01*
X45013690Y-128658928D01*
X45061309Y-128849404D01*
X45108928Y-128944642D01*
X45156547Y-128992261D01*
X45251785Y-129039880D01*
X45347023Y-129039880D01*
X45442261Y-128992261D01*
X45489880Y-128944642D01*
X45537500Y-128849404D01*
X45585119Y-128658928D01*
X45585119Y-128420833D01*
X45537500Y-128230357D01*
X45489880Y-128135119D01*
X45442261Y-128087500D01*
X45347023Y-128039880D01*
X44156547Y-128373214D02*
X44156547Y-129039880D01*
X44585119Y-128373214D02*
X44585119Y-128897023D01*
X44537500Y-128992261D01*
X44442261Y-129039880D01*
X44299404Y-129039880D01*
X44204166Y-128992261D01*
X44156547Y-128944642D01*
%TO.C,T*%
X146335714Y-70889880D02*
X145764285Y-70889880D01*
X146050000Y-71889880D02*
X146050000Y-70889880D01*
%TO.C,Tab*%
X47227976Y-70889880D02*
X46656547Y-70889880D01*
X46942261Y-71889880D02*
X46942261Y-70889880D01*
X45894642Y-71889880D02*
X45894642Y-71366071D01*
X45942261Y-71270833D01*
X46037500Y-71223214D01*
X46227976Y-71223214D01*
X46323214Y-71270833D01*
X45894642Y-71842261D02*
X45989880Y-71889880D01*
X46227976Y-71889880D01*
X46323214Y-71842261D01*
X46370833Y-71747023D01*
X46370833Y-71651785D01*
X46323214Y-71556547D01*
X46227976Y-71508928D01*
X45989880Y-71508928D01*
X45894642Y-71461309D01*
X45418452Y-71889880D02*
X45418452Y-70889880D01*
X45418452Y-71270833D02*
X45323214Y-71223214D01*
X45132738Y-71223214D01*
X45037500Y-71270833D01*
X44989880Y-71318452D01*
X44942261Y-71413690D01*
X44942261Y-71699404D01*
X44989880Y-71794642D01*
X45037500Y-71842261D01*
X45132738Y-71889880D01*
X45323214Y-71889880D01*
X45418452Y-71842261D01*
%TO.C,[*%
X260159523Y-72223214D02*
X260397619Y-72223214D01*
X260397619Y-70794642D01*
X260159523Y-70794642D01*
%TO.C,1.50u*%
X256944642Y-129039880D02*
X257516071Y-129039880D01*
X257230357Y-129039880D02*
X257230357Y-128039880D01*
X257325595Y-128182738D01*
X257420833Y-128277976D01*
X257516071Y-128325595D01*
X256516071Y-128944642D02*
X256468452Y-128992261D01*
X256516071Y-129039880D01*
X256563690Y-128992261D01*
X256516071Y-128944642D01*
X256516071Y-129039880D01*
X255563690Y-128039880D02*
X256039880Y-128039880D01*
X256087500Y-128516071D01*
X256039880Y-128468452D01*
X255944642Y-128420833D01*
X255706547Y-128420833D01*
X255611309Y-128468452D01*
X255563690Y-128516071D01*
X255516071Y-128611309D01*
X255516071Y-128849404D01*
X255563690Y-128944642D01*
X255611309Y-128992261D01*
X255706547Y-129039880D01*
X255944642Y-129039880D01*
X256039880Y-128992261D01*
X256087500Y-128944642D01*
X254897023Y-128039880D02*
X254801785Y-128039880D01*
X254706547Y-128087500D01*
X254658928Y-128135119D01*
X254611309Y-128230357D01*
X254563690Y-128420833D01*
X254563690Y-128658928D01*
X254611309Y-128849404D01*
X254658928Y-128944642D01*
X254706547Y-128992261D01*
X254801785Y-129039880D01*
X254897023Y-129039880D01*
X254992261Y-128992261D01*
X255039880Y-128944642D01*
X255087500Y-128849404D01*
X255135119Y-128658928D01*
X255135119Y-128420833D01*
X255087500Y-128230357D01*
X255039880Y-128135119D01*
X254992261Y-128087500D01*
X254897023Y-128039880D01*
X253706547Y-128373214D02*
X253706547Y-129039880D01*
X254135119Y-128373214D02*
X254135119Y-128897023D01*
X254087500Y-128992261D01*
X253992261Y-129039880D01*
X253849404Y-129039880D01*
X253754166Y-128992261D01*
X253706547Y-128944642D01*
%TO.C,R*%
X126690476Y-71889880D02*
X127023809Y-71413690D01*
X127261904Y-71889880D02*
X127261904Y-70889880D01*
X126880952Y-70889880D01*
X126785714Y-70937500D01*
X126738095Y-70985119D01*
X126690476Y-71080357D01*
X126690476Y-71223214D01*
X126738095Y-71318452D01*
X126785714Y-71366071D01*
X126880952Y-71413690D01*
X127261904Y-71413690D01*
%TO.C,<*%
X217106547Y-109323214D02*
X217868452Y-109608928D01*
X217106547Y-109894642D01*
X217439880Y-111404761D02*
X217439880Y-111452380D01*
X217487500Y-111547619D01*
X217535119Y-111595238D01*
%TO.C,Stepped*%
X44165714Y-90892261D02*
X44022857Y-90939880D01*
X43784761Y-90939880D01*
X43689523Y-90892261D01*
X43641904Y-90844642D01*
X43594285Y-90749404D01*
X43594285Y-90654166D01*
X43641904Y-90558928D01*
X43689523Y-90511309D01*
X43784761Y-90463690D01*
X43975238Y-90416071D01*
X44070476Y-90368452D01*
X44118095Y-90320833D01*
X44165714Y-90225595D01*
X44165714Y-90130357D01*
X44118095Y-90035119D01*
X44070476Y-89987500D01*
X43975238Y-89939880D01*
X43737142Y-89939880D01*
X43594285Y-89987500D01*
X43308571Y-90273214D02*
X42927619Y-90273214D01*
X43165714Y-89939880D02*
X43165714Y-90797023D01*
X43118095Y-90892261D01*
X43022857Y-90939880D01*
X42927619Y-90939880D01*
X42213333Y-90892261D02*
X42308571Y-90939880D01*
X42499047Y-90939880D01*
X42594285Y-90892261D01*
X42641904Y-90797023D01*
X42641904Y-90416071D01*
X42594285Y-90320833D01*
X42499047Y-90273214D01*
X42308571Y-90273214D01*
X42213333Y-90320833D01*
X42165714Y-90416071D01*
X42165714Y-90511309D01*
X42641904Y-90606547D01*
X41737142Y-90273214D02*
X41737142Y-91273214D01*
X41737142Y-90320833D02*
X41641904Y-90273214D01*
X41451428Y-90273214D01*
X41356190Y-90320833D01*
X41308571Y-90368452D01*
X41260952Y-90463690D01*
X41260952Y-90749404D01*
X41308571Y-90844642D01*
X41356190Y-90892261D01*
X41451428Y-90939880D01*
X41641904Y-90939880D01*
X41737142Y-90892261D01*
X40832380Y-90273214D02*
X40832380Y-91273214D01*
X40832380Y-90320833D02*
X40737142Y-90273214D01*
X40546666Y-90273214D01*
X40451428Y-90320833D01*
X40403809Y-90368452D01*
X40356190Y-90463690D01*
X40356190Y-90749404D01*
X40403809Y-90844642D01*
X40451428Y-90892261D01*
X40546666Y-90939880D01*
X40737142Y-90939880D01*
X40832380Y-90892261D01*
X39546666Y-90892261D02*
X39641904Y-90939880D01*
X39832380Y-90939880D01*
X39927619Y-90892261D01*
X39975238Y-90797023D01*
X39975238Y-90416071D01*
X39927619Y-90320833D01*
X39832380Y-90273214D01*
X39641904Y-90273214D01*
X39546666Y-90320833D01*
X39499047Y-90416071D01*
X39499047Y-90511309D01*
X39975238Y-90606547D01*
X38641904Y-90939880D02*
X38641904Y-89939880D01*
X38641904Y-90892261D02*
X38737142Y-90939880D01*
X38927619Y-90939880D01*
X39022857Y-90892261D01*
X39070476Y-90844642D01*
X39118095Y-90749404D01*
X39118095Y-90463690D01*
X39070476Y-90368452D01*
X39022857Y-90320833D01*
X38927619Y-90273214D01*
X38737142Y-90273214D01*
X38641904Y-90320833D01*
%TO.C,S*%
X93948214Y-90892261D02*
X93805357Y-90939880D01*
X93567261Y-90939880D01*
X93472023Y-90892261D01*
X93424404Y-90844642D01*
X93376785Y-90749404D01*
X93376785Y-90654166D01*
X93424404Y-90558928D01*
X93472023Y-90511309D01*
X93567261Y-90463690D01*
X93757738Y-90416071D01*
X93852976Y-90368452D01*
X93900595Y-90320833D01*
X93948214Y-90225595D01*
X93948214Y-90130357D01*
X93900595Y-90035119D01*
X93852976Y-89987500D01*
X93757738Y-89939880D01*
X93519642Y-89939880D01*
X93376785Y-89987500D01*
%TO.C,B*%
X160266071Y-109466071D02*
X160123214Y-109513690D01*
X160075595Y-109561309D01*
X160027976Y-109656547D01*
X160027976Y-109799404D01*
X160075595Y-109894642D01*
X160123214Y-109942261D01*
X160218452Y-109989880D01*
X160599404Y-109989880D01*
X160599404Y-108989880D01*
X160266071Y-108989880D01*
X160170833Y-109037500D01*
X160123214Y-109085119D01*
X160075595Y-109180357D01*
X160075595Y-109275595D01*
X160123214Y-109370833D01*
X160170833Y-109418452D01*
X160266071Y-109466071D01*
X160599404Y-109466071D01*
%TO.C,H*%
X170148214Y-90939880D02*
X170148214Y-89939880D01*
X170148214Y-90416071D02*
X169576785Y-90416071D01*
X169576785Y-90939880D02*
X169576785Y-89939880D01*
%TO.C,D*%
X112974404Y-90939880D02*
X112974404Y-89939880D01*
X112736309Y-89939880D01*
X112593452Y-89987500D01*
X112498214Y-90082738D01*
X112450595Y-90177976D01*
X112402976Y-90368452D01*
X112402976Y-90511309D01*
X112450595Y-90701785D01*
X112498214Y-90797023D01*
X112593452Y-90892261D01*
X112736309Y-90939880D01*
X112974404Y-90939880D01*
%TO.C,J*%
X188769642Y-89939880D02*
X188769642Y-90654166D01*
X188817261Y-90797023D01*
X188912500Y-90892261D01*
X189055357Y-90939880D01*
X189150595Y-90939880D01*
%TO.C,ISO*%
X285162500Y-90939880D02*
X285162500Y-89939880D01*
X284733928Y-90892261D02*
X284591071Y-90939880D01*
X284352976Y-90939880D01*
X284257738Y-90892261D01*
X284210119Y-90844642D01*
X284162500Y-90749404D01*
X284162500Y-90654166D01*
X284210119Y-90558928D01*
X284257738Y-90511309D01*
X284352976Y-90463690D01*
X284543452Y-90416071D01*
X284638690Y-90368452D01*
X284686309Y-90320833D01*
X284733928Y-90225595D01*
X284733928Y-90130357D01*
X284686309Y-90035119D01*
X284638690Y-89987500D01*
X284543452Y-89939880D01*
X284305357Y-89939880D01*
X284162500Y-89987500D01*
X283543452Y-89939880D02*
X283352976Y-89939880D01*
X283257738Y-89987500D01*
X283162500Y-90082738D01*
X283114880Y-90273214D01*
X283114880Y-90606547D01*
X283162500Y-90797023D01*
X283257738Y-90892261D01*
X283352976Y-90939880D01*
X283543452Y-90939880D01*
X283638690Y-90892261D01*
X283733928Y-90797023D01*
X283781547Y-90606547D01*
X283781547Y-90273214D01*
X283733928Y-90082738D01*
X283638690Y-89987500D01*
X283543452Y-89939880D01*
%TO.C,1u*%
X117641666Y-129039880D02*
X118213095Y-129039880D01*
X117927380Y-129039880D02*
X117927380Y-128039880D01*
X118022619Y-128182738D01*
X118117857Y-128277976D01*
X118213095Y-128325595D01*
X116784523Y-128373214D02*
X116784523Y-129039880D01*
X117213095Y-128373214D02*
X117213095Y-128897023D01*
X117165476Y-128992261D01*
X117070238Y-129039880D01*
X116927380Y-129039880D01*
X116832142Y-128992261D01*
X116784523Y-128944642D01*
X308141666Y-109989880D02*
X308713095Y-109989880D01*
X308427380Y-109989880D02*
X308427380Y-108989880D01*
X308522619Y-109132738D01*
X308617857Y-109227976D01*
X308713095Y-109275595D01*
X307284523Y-109323214D02*
X307284523Y-109989880D01*
X307713095Y-109323214D02*
X307713095Y-109847023D01*
X307665476Y-109942261D01*
X307570238Y-109989880D01*
X307427380Y-109989880D01*
X307332142Y-109942261D01*
X307284523Y-109894642D01*
%TO.C,W*%
X89328571Y-70889880D02*
X89090476Y-71889880D01*
X88900000Y-71175595D01*
X88709523Y-71889880D01*
X88471428Y-70889880D01*
%TO.C,-*%
X251205952Y-52458928D02*
X250444047Y-52458928D01*
%TO.C,1.75u*%
X283138392Y-109989880D02*
X283709821Y-109989880D01*
X283424107Y-109989880D02*
X283424107Y-108989880D01*
X283519345Y-109132738D01*
X283614583Y-109227976D01*
X283709821Y-109275595D01*
X282709821Y-109894642D02*
X282662202Y-109942261D01*
X282709821Y-109989880D01*
X282757440Y-109942261D01*
X282709821Y-109894642D01*
X282709821Y-109989880D01*
X282328869Y-108989880D02*
X281662202Y-108989880D01*
X282090773Y-109989880D01*
X280805059Y-108989880D02*
X281281250Y-108989880D01*
X281328869Y-109466071D01*
X281281250Y-109418452D01*
X281186011Y-109370833D01*
X280947916Y-109370833D01*
X280852678Y-109418452D01*
X280805059Y-109466071D01*
X280757440Y-109561309D01*
X280757440Y-109799404D01*
X280805059Y-109894642D01*
X280852678Y-109942261D01*
X280947916Y-109989880D01*
X281186011Y-109989880D01*
X281281250Y-109942261D01*
X281328869Y-109894642D01*
X279900297Y-109323214D02*
X279900297Y-109989880D01*
X280328869Y-109323214D02*
X280328869Y-109847023D01*
X280281250Y-109942261D01*
X280186011Y-109989880D01*
X280043154Y-109989880D01*
X279947916Y-109942261D01*
X279900297Y-109894642D01*
%TO.C,V*%
X141620833Y-108989880D02*
X141287500Y-109989880D01*
X140954166Y-108989880D01*
%TO.C,X*%
X103520833Y-108989880D02*
X102854166Y-109989880D01*
X102854166Y-108989880D02*
X103520833Y-109989880D01*
%TO.C,1u*%
X279566666Y-129039880D02*
X280138095Y-129039880D01*
X279852380Y-129039880D02*
X279852380Y-128039880D01*
X279947619Y-128182738D01*
X280042857Y-128277976D01*
X280138095Y-128325595D01*
X278709523Y-128373214D02*
X278709523Y-129039880D01*
X279138095Y-128373214D02*
X279138095Y-128897023D01*
X279090476Y-128992261D01*
X278995238Y-129039880D01*
X278852380Y-129039880D01*
X278757142Y-128992261D01*
X278709523Y-128944642D01*
%TO.C,5*%
X136286904Y-51839880D02*
X136763095Y-51839880D01*
X136810714Y-52316071D01*
X136763095Y-52268452D01*
X136667857Y-52220833D01*
X136429761Y-52220833D01*
X136334523Y-52268452D01*
X136286904Y-52316071D01*
X136239285Y-52411309D01*
X136239285Y-52649404D01*
X136286904Y-52744642D01*
X136334523Y-52792261D01*
X136429761Y-52839880D01*
X136667857Y-52839880D01*
X136763095Y-52792261D01*
X136810714Y-52744642D01*
%TO.C,G*%
X150550595Y-89987500D02*
X150645833Y-89939880D01*
X150788690Y-89939880D01*
X150931547Y-89987500D01*
X151026785Y-90082738D01*
X151074404Y-90177976D01*
X151122023Y-90368452D01*
X151122023Y-90511309D01*
X151074404Y-90701785D01*
X151026785Y-90797023D01*
X150931547Y-90892261D01*
X150788690Y-90939880D01*
X150693452Y-90939880D01*
X150550595Y-90892261D01*
X150502976Y-90844642D01*
X150502976Y-90511309D01*
X150693452Y-90511309D01*
%TO.C,1u*%
X231941666Y-129039880D02*
X232513095Y-129039880D01*
X232227380Y-129039880D02*
X232227380Y-128039880D01*
X232322619Y-128182738D01*
X232417857Y-128277976D01*
X232513095Y-128325595D01*
X231084523Y-128373214D02*
X231084523Y-129039880D01*
X231513095Y-128373214D02*
X231513095Y-128897023D01*
X231465476Y-128992261D01*
X231370238Y-129039880D01*
X231227380Y-129039880D01*
X231132142Y-128992261D01*
X231084523Y-128944642D01*
%TO.C,:*%
X246062500Y-90844642D02*
X246014880Y-90892261D01*
X246062500Y-90939880D01*
X246110119Y-90892261D01*
X246062500Y-90844642D01*
X246062500Y-90939880D01*
X246062500Y-90320833D02*
X246014880Y-90368452D01*
X246062500Y-90416071D01*
X246110119Y-90368452D01*
X246062500Y-90320833D01*
X246062500Y-90416071D01*
X246014880Y-92404761D02*
X246014880Y-92452380D01*
X246062500Y-92547619D01*
X246110119Y-92595238D01*
X246062500Y-91833333D02*
X246014880Y-91880952D01*
X246062500Y-91928571D01*
X246110119Y-91880952D01*
X246062500Y-91833333D01*
X246062500Y-91928571D01*
%TO.C,8*%
X193770238Y-52268452D02*
X193865476Y-52220833D01*
X193913095Y-52173214D01*
X193960714Y-52077976D01*
X193960714Y-52030357D01*
X193913095Y-51935119D01*
X193865476Y-51887500D01*
X193770238Y-51839880D01*
X193579761Y-51839880D01*
X193484523Y-51887500D01*
X193436904Y-51935119D01*
X193389285Y-52030357D01*
X193389285Y-52077976D01*
X193436904Y-52173214D01*
X193484523Y-52220833D01*
X193579761Y-52268452D01*
X193770238Y-52268452D01*
X193865476Y-52316071D01*
X193913095Y-52363690D01*
X193960714Y-52458928D01*
X193960714Y-52649404D01*
X193913095Y-52744642D01*
X193865476Y-52792261D01*
X193770238Y-52839880D01*
X193579761Y-52839880D01*
X193484523Y-52792261D01*
X193436904Y-52744642D01*
X193389285Y-52649404D01*
X193389285Y-52458928D01*
X193436904Y-52363690D01*
X193484523Y-52316071D01*
X193579761Y-52268452D01*
%TO.C,P*%
X241561904Y-71889880D02*
X241561904Y-70889880D01*
X241180952Y-70889880D01*
X241085714Y-70937500D01*
X241038095Y-70985119D01*
X240990476Y-71080357D01*
X240990476Y-71223214D01*
X241038095Y-71318452D01*
X241085714Y-71366071D01*
X241180952Y-71413690D01*
X241561904Y-71413690D01*
%TO.C,2.25u*%
X150359821Y-128135119D02*
X150312202Y-128087500D01*
X150216964Y-128039880D01*
X149978869Y-128039880D01*
X149883630Y-128087500D01*
X149836011Y-128135119D01*
X149788392Y-128230357D01*
X149788392Y-128325595D01*
X149836011Y-128468452D01*
X150407440Y-129039880D01*
X149788392Y-129039880D01*
X149359821Y-128944642D02*
X149312202Y-128992261D01*
X149359821Y-129039880D01*
X149407440Y-128992261D01*
X149359821Y-128944642D01*
X149359821Y-129039880D01*
X148931250Y-128135119D02*
X148883630Y-128087500D01*
X148788392Y-128039880D01*
X148550297Y-128039880D01*
X148455059Y-128087500D01*
X148407440Y-128135119D01*
X148359821Y-128230357D01*
X148359821Y-128325595D01*
X148407440Y-128468452D01*
X148978869Y-129039880D01*
X148359821Y-129039880D01*
X147455059Y-128039880D02*
X147931250Y-128039880D01*
X147978869Y-128516071D01*
X147931250Y-128468452D01*
X147836011Y-128420833D01*
X147597916Y-128420833D01*
X147502678Y-128468452D01*
X147455059Y-128516071D01*
X147407440Y-128611309D01*
X147407440Y-128849404D01*
X147455059Y-128944642D01*
X147502678Y-128992261D01*
X147597916Y-129039880D01*
X147836011Y-129039880D01*
X147931250Y-128992261D01*
X147978869Y-128944642D01*
X146550297Y-128373214D02*
X146550297Y-129039880D01*
X146978869Y-128373214D02*
X146978869Y-128897023D01*
X146931250Y-128992261D01*
X146836011Y-129039880D01*
X146693154Y-129039880D01*
X146597916Y-128992261D01*
X146550297Y-128944642D01*
X138428571Y-129547619D02*
X138380952Y-129500000D01*
X138285714Y-129452380D01*
X138047619Y-129452380D01*
X137952380Y-129500000D01*
X137904761Y-129547619D01*
X137857142Y-129642857D01*
X137857142Y-129738095D01*
X137904761Y-129880952D01*
X138476190Y-130452380D01*
X137857142Y-130452380D01*
X137428571Y-130357142D02*
X137380952Y-130404761D01*
X137428571Y-130452380D01*
X137476190Y-130404761D01*
X137428571Y-130357142D01*
X137428571Y-130452380D01*
X137000000Y-129547619D02*
X136952380Y-129500000D01*
X136857142Y-129452380D01*
X136619047Y-129452380D01*
X136523809Y-129500000D01*
X136476190Y-129547619D01*
X136428571Y-129642857D01*
X136428571Y-129738095D01*
X136476190Y-129880952D01*
X137047619Y-130452380D01*
X136428571Y-130452380D01*
X135523809Y-129452380D02*
X136000000Y-129452380D01*
X136047619Y-129928571D01*
X136000000Y-129880952D01*
X135904761Y-129833333D01*
X135666666Y-129833333D01*
X135571428Y-129880952D01*
X135523809Y-129928571D01*
X135476190Y-130023809D01*
X135476190Y-130261904D01*
X135523809Y-130357142D01*
X135571428Y-130404761D01*
X135666666Y-130452380D01*
X135904761Y-130452380D01*
X136000000Y-130404761D01*
X136047619Y-130357142D01*
X134619047Y-129785714D02*
X134619047Y-130452380D01*
X135047619Y-129785714D02*
X135047619Y-130309523D01*
X135000000Y-130404761D01*
X134904761Y-130452380D01*
X134761904Y-130452380D01*
X134666666Y-130404761D01*
X134619047Y-130357142D01*
X162178571Y-129547619D02*
X162130952Y-129500000D01*
X162035714Y-129452380D01*
X161797619Y-129452380D01*
X161702380Y-129500000D01*
X161654761Y-129547619D01*
X161607142Y-129642857D01*
X161607142Y-129738095D01*
X161654761Y-129880952D01*
X162226190Y-130452380D01*
X161607142Y-130452380D01*
X161178571Y-130357142D02*
X161130952Y-130404761D01*
X161178571Y-130452380D01*
X161226190Y-130404761D01*
X161178571Y-130357142D01*
X161178571Y-130452380D01*
X160750000Y-129547619D02*
X160702380Y-129500000D01*
X160607142Y-129452380D01*
X160369047Y-129452380D01*
X160273809Y-129500000D01*
X160226190Y-129547619D01*
X160178571Y-129642857D01*
X160178571Y-129738095D01*
X160226190Y-129880952D01*
X160797619Y-130452380D01*
X160178571Y-130452380D01*
X159273809Y-129452380D02*
X159750000Y-129452380D01*
X159797619Y-129928571D01*
X159750000Y-129880952D01*
X159654761Y-129833333D01*
X159416666Y-129833333D01*
X159321428Y-129880952D01*
X159273809Y-129928571D01*
X159226190Y-130023809D01*
X159226190Y-130261904D01*
X159273809Y-130357142D01*
X159321428Y-130404761D01*
X159416666Y-130452380D01*
X159654761Y-130452380D01*
X159750000Y-130404761D01*
X159797619Y-130357142D01*
X158369047Y-129785714D02*
X158369047Y-130452380D01*
X158797619Y-129785714D02*
X158797619Y-130309523D01*
X158750000Y-130404761D01*
X158654761Y-130452380D01*
X158511904Y-130452380D01*
X158416666Y-130404761D01*
X158369047Y-130357142D01*
%TO.C,Q*%
X69469047Y-71985119D02*
X69564285Y-71937500D01*
X69659523Y-71842261D01*
X69802380Y-71699404D01*
X69897619Y-71651785D01*
X69992857Y-71651785D01*
X69945238Y-71889880D02*
X70040476Y-71842261D01*
X70135714Y-71747023D01*
X70183333Y-71556547D01*
X70183333Y-71223214D01*
X70135714Y-71032738D01*
X70040476Y-70937500D01*
X69945238Y-70889880D01*
X69754761Y-70889880D01*
X69659523Y-70937500D01*
X69564285Y-71032738D01*
X69516666Y-71223214D01*
X69516666Y-71556547D01*
X69564285Y-71747023D01*
X69659523Y-71842261D01*
X69754761Y-71889880D01*
X69945238Y-71889880D01*
%TO.C,1*%
X60039285Y-52839880D02*
X60610714Y-52839880D01*
X60325000Y-52839880D02*
X60325000Y-51839880D01*
X60420238Y-51982738D01*
X60515476Y-52077976D01*
X60610714Y-52125595D01*
%TO.C,Y*%
X165100000Y-71413690D02*
X165100000Y-71889880D01*
X165433333Y-70889880D02*
X165100000Y-71413690D01*
X164766666Y-70889880D01*
%TO.C,]*%
X279590476Y-72223214D02*
X279352380Y-72223214D01*
X279352380Y-70794642D01*
X279590476Y-70794642D01*
%TO.C,1u/7u/10u*%
X178157619Y-130782380D02*
X178729047Y-130782380D01*
X178443333Y-130782380D02*
X178443333Y-129782380D01*
X178538571Y-129925238D01*
X178633809Y-130020476D01*
X178729047Y-130068095D01*
X177300476Y-130115714D02*
X177300476Y-130782380D01*
X177729047Y-130115714D02*
X177729047Y-130639523D01*
X177681428Y-130734761D01*
X177586190Y-130782380D01*
X177443333Y-130782380D01*
X177348095Y-130734761D01*
X177300476Y-130687142D01*
X176110000Y-129734761D02*
X176967142Y-131020476D01*
X175871904Y-129782380D02*
X175205238Y-129782380D01*
X175633809Y-130782380D01*
X174395714Y-130115714D02*
X174395714Y-130782380D01*
X174824285Y-130115714D02*
X174824285Y-130639523D01*
X174776666Y-130734761D01*
X174681428Y-130782380D01*
X174538571Y-130782380D01*
X174443333Y-130734761D01*
X174395714Y-130687142D01*
X173205238Y-129734761D02*
X174062380Y-131020476D01*
X172348095Y-130782380D02*
X172919523Y-130782380D01*
X172633809Y-130782380D02*
X172633809Y-129782380D01*
X172729047Y-129925238D01*
X172824285Y-130020476D01*
X172919523Y-130068095D01*
X171729047Y-129782380D02*
X171633809Y-129782380D01*
X171538571Y-129830000D01*
X171490952Y-129877619D01*
X171443333Y-129972857D01*
X171395714Y-130163333D01*
X171395714Y-130401428D01*
X171443333Y-130591904D01*
X171490952Y-130687142D01*
X171538571Y-130734761D01*
X171633809Y-130782380D01*
X171729047Y-130782380D01*
X171824285Y-130734761D01*
X171871904Y-130687142D01*
X171919523Y-130591904D01*
X171967142Y-130401428D01*
X171967142Y-130163333D01*
X171919523Y-129972857D01*
X171871904Y-129877619D01*
X171824285Y-129830000D01*
X171729047Y-129782380D01*
X170538571Y-130115714D02*
X170538571Y-130782380D01*
X170967142Y-130115714D02*
X170967142Y-130639523D01*
X170919523Y-130734761D01*
X170824285Y-130782380D01*
X170681428Y-130782380D01*
X170586190Y-130734761D01*
X170538571Y-130687142D01*
%TO.C,9*%
X212915476Y-52839880D02*
X212725000Y-52839880D01*
X212629761Y-52792261D01*
X212582142Y-52744642D01*
X212486904Y-52601785D01*
X212439285Y-52411309D01*
X212439285Y-52030357D01*
X212486904Y-51935119D01*
X212534523Y-51887500D01*
X212629761Y-51839880D01*
X212820238Y-51839880D01*
X212915476Y-51887500D01*
X212963095Y-51935119D01*
X213010714Y-52030357D01*
X213010714Y-52268452D01*
X212963095Y-52363690D01*
X212915476Y-52411309D01*
X212820238Y-52458928D01*
X212629761Y-52458928D01*
X212534523Y-52411309D01*
X212486904Y-52363690D01*
X212439285Y-52268452D01*
%TO.C,1u*%
X65254166Y-109989880D02*
X65825595Y-109989880D01*
X65539880Y-109989880D02*
X65539880Y-108989880D01*
X65635119Y-109132738D01*
X65730357Y-109227976D01*
X65825595Y-109275595D01*
X64397023Y-109323214D02*
X64397023Y-109989880D01*
X64825595Y-109323214D02*
X64825595Y-109847023D01*
X64777976Y-109942261D01*
X64682738Y-109989880D01*
X64539880Y-109989880D01*
X64444642Y-109942261D01*
X64397023Y-109894642D01*
%TO.C,>*%
X236918452Y-109323214D02*
X236156547Y-109608928D01*
X236918452Y-109894642D01*
X236537500Y-111357142D02*
X236489880Y-111404761D01*
X236537500Y-111452380D01*
X236585119Y-111404761D01*
X236537500Y-111357142D01*
X236537500Y-111452380D01*
%TO.C,2.75u*%
X292968571Y-109085119D02*
X292920952Y-109037500D01*
X292825714Y-108989880D01*
X292587619Y-108989880D01*
X292492380Y-109037500D01*
X292444761Y-109085119D01*
X292397142Y-109180357D01*
X292397142Y-109275595D01*
X292444761Y-109418452D01*
X293016190Y-109989880D01*
X292397142Y-109989880D01*
X291968571Y-109894642D02*
X291920952Y-109942261D01*
X291968571Y-109989880D01*
X292016190Y-109942261D01*
X291968571Y-109894642D01*
X291968571Y-109989880D01*
X291587619Y-108989880D02*
X290920952Y-108989880D01*
X291349523Y-109989880D01*
X290063809Y-108989880D02*
X290540000Y-108989880D01*
X290587619Y-109466071D01*
X290540000Y-109418452D01*
X290444761Y-109370833D01*
X290206666Y-109370833D01*
X290111428Y-109418452D01*
X290063809Y-109466071D01*
X290016190Y-109561309D01*
X290016190Y-109799404D01*
X290063809Y-109894642D01*
X290111428Y-109942261D01*
X290206666Y-109989880D01*
X290444761Y-109989880D01*
X290540000Y-109942261D01*
X290587619Y-109894642D01*
X289159047Y-109323214D02*
X289159047Y-109989880D01*
X289587619Y-109323214D02*
X289587619Y-109847023D01*
X289540000Y-109942261D01*
X289444761Y-109989880D01*
X289301904Y-109989880D01*
X289206666Y-109942261D01*
X289159047Y-109894642D01*
%TO.C,C*%
X121927976Y-109894642D02*
X121975595Y-109942261D01*
X122118452Y-109989880D01*
X122213690Y-109989880D01*
X122356547Y-109942261D01*
X122451785Y-109847023D01*
X122499404Y-109751785D01*
X122547023Y-109561309D01*
X122547023Y-109418452D01*
X122499404Y-109227976D01*
X122451785Y-109132738D01*
X122356547Y-109037500D01*
X122213690Y-108989880D01*
X122118452Y-108989880D01*
X121975595Y-109037500D01*
X121927976Y-109085119D01*
%TO.C,E*%
X108164285Y-71366071D02*
X107830952Y-71366071D01*
X107688095Y-71889880D02*
X108164285Y-71889880D01*
X108164285Y-70889880D01*
X107688095Y-70889880D01*
%TO.C,ANSI*%
X295226190Y-90416666D02*
X294750000Y-90416666D01*
X295321428Y-90702380D02*
X294988095Y-89702380D01*
X294654761Y-90702380D01*
X294321428Y-90702380D02*
X294321428Y-89702380D01*
X293750000Y-90702380D01*
X293750000Y-89702380D01*
X293321428Y-90654761D02*
X293178571Y-90702380D01*
X292940476Y-90702380D01*
X292845238Y-90654761D01*
X292797619Y-90607142D01*
X292750000Y-90511904D01*
X292750000Y-90416666D01*
X292797619Y-90321428D01*
X292845238Y-90273809D01*
X292940476Y-90226190D01*
X293130952Y-90178571D01*
X293226190Y-90130952D01*
X293273809Y-90083333D01*
X293321428Y-89988095D01*
X293321428Y-89892857D01*
X293273809Y-89797619D01*
X293226190Y-89750000D01*
X293130952Y-89702380D01*
X292892857Y-89702380D01*
X292750000Y-89750000D01*
X292321428Y-90702380D02*
X292321428Y-89702380D01*
%TO.C,A*%
X74850595Y-90654166D02*
X74374404Y-90654166D01*
X74945833Y-90939880D02*
X74612500Y-89939880D01*
X74279166Y-90939880D01*
%TO.C,1u*%
X308141666Y-52839880D02*
X308713095Y-52839880D01*
X308427380Y-52839880D02*
X308427380Y-51839880D01*
X308522619Y-51982738D01*
X308617857Y-52077976D01*
X308713095Y-52125595D01*
X307284523Y-52173214D02*
X307284523Y-52839880D01*
X307713095Y-52173214D02*
X307713095Y-52697023D01*
X307665476Y-52792261D01*
X307570238Y-52839880D01*
X307427380Y-52839880D01*
X307332142Y-52792261D01*
X307284523Y-52744642D01*
%TO.C,0*%
X231822619Y-51839880D02*
X231727380Y-51839880D01*
X231632142Y-51887500D01*
X231584523Y-51935119D01*
X231536904Y-52030357D01*
X231489285Y-52220833D01*
X231489285Y-52458928D01*
X231536904Y-52649404D01*
X231584523Y-52744642D01*
X231632142Y-52792261D01*
X231727380Y-52839880D01*
X231822619Y-52839880D01*
X231917857Y-52792261D01*
X231965476Y-52744642D01*
X232013095Y-52649404D01*
X232060714Y-52458928D01*
X232060714Y-52220833D01*
X232013095Y-52030357D01*
X231965476Y-51935119D01*
X231917857Y-51887500D01*
X231822619Y-51839880D01*
%TO.C,L*%
X226702976Y-90939880D02*
X227179166Y-90939880D01*
X227179166Y-89939880D01*
%TO.C,I*%
X203200000Y-71889880D02*
X203200000Y-70889880D01*
%TO.C,M*%
X198770833Y-109989880D02*
X198770833Y-108989880D01*
X198437500Y-109704166D01*
X198104166Y-108989880D01*
X198104166Y-109989880D01*
%TO.C,2u*%
X299188095Y-51935119D02*
X299140476Y-51887500D01*
X299045238Y-51839880D01*
X298807142Y-51839880D01*
X298711904Y-51887500D01*
X298664285Y-51935119D01*
X298616666Y-52030357D01*
X298616666Y-52125595D01*
X298664285Y-52268452D01*
X299235714Y-52839880D01*
X298616666Y-52839880D01*
X297759523Y-52173214D02*
X297759523Y-52839880D01*
X298188095Y-52173214D02*
X298188095Y-52697023D01*
X298140476Y-52792261D01*
X298045238Y-52839880D01*
X297902380Y-52839880D01*
X297807142Y-52792261D01*
X297759523Y-52744642D01*
%TO.C,?*%
X255635119Y-109894642D02*
X255587500Y-109942261D01*
X255635119Y-109989880D01*
X255682738Y-109942261D01*
X255635119Y-109894642D01*
X255635119Y-109989880D01*
X255825595Y-109037500D02*
X255730357Y-108989880D01*
X255492261Y-108989880D01*
X255397023Y-109037500D01*
X255349404Y-109132738D01*
X255349404Y-109227976D01*
X255397023Y-109323214D01*
X255444642Y-109370833D01*
X255539880Y-109418452D01*
X255587500Y-109466071D01*
X255635119Y-109561309D01*
X255635119Y-109608928D01*
X255158928Y-110654761D02*
X256016071Y-111940476D01*
%TO.C,F*%
X131619642Y-90416071D02*
X131952976Y-90416071D01*
X131952976Y-90939880D02*
X131952976Y-89939880D01*
X131476785Y-89939880D01*
%TO.C,ISO*%
X306000000Y-81414880D02*
X306000000Y-80414880D01*
X305571428Y-81367261D02*
X305428571Y-81414880D01*
X305190476Y-81414880D01*
X305095238Y-81367261D01*
X305047619Y-81319642D01*
X305000000Y-81224404D01*
X305000000Y-81129166D01*
X305047619Y-81033928D01*
X305095238Y-80986309D01*
X305190476Y-80938690D01*
X305380952Y-80891071D01*
X305476190Y-80843452D01*
X305523809Y-80795833D01*
X305571428Y-80700595D01*
X305571428Y-80605357D01*
X305523809Y-80510119D01*
X305476190Y-80462500D01*
X305380952Y-80414880D01*
X305142857Y-80414880D01*
X305000000Y-80462500D01*
X304380952Y-80414880D02*
X304190476Y-80414880D01*
X304095238Y-80462500D01*
X304000000Y-80557738D01*
X303952380Y-80748214D01*
X303952380Y-81081547D01*
X304000000Y-81272023D01*
X304095238Y-81367261D01*
X304190476Y-81414880D01*
X304380952Y-81414880D01*
X304476190Y-81367261D01*
X304571428Y-81272023D01*
X304619047Y-81081547D01*
X304619047Y-80748214D01*
X304571428Y-80557738D01*
X304476190Y-80462500D01*
X304380952Y-80414880D01*
%TO.C,1u*%
X70016666Y-129039880D02*
X70588095Y-129039880D01*
X70302380Y-129039880D02*
X70302380Y-128039880D01*
X70397619Y-128182738D01*
X70492857Y-128277976D01*
X70588095Y-128325595D01*
X69159523Y-128373214D02*
X69159523Y-129039880D01*
X69588095Y-128373214D02*
X69588095Y-128897023D01*
X69540476Y-128992261D01*
X69445238Y-129039880D01*
X69302380Y-129039880D01*
X69207142Y-128992261D01*
X69159523Y-128944642D01*
%TO.C,N*%
X179673214Y-109989880D02*
X179673214Y-108989880D01*
X179101785Y-109989880D01*
X179101785Y-108989880D01*
%TO.C,3*%
X98758333Y-51839880D02*
X98139285Y-51839880D01*
X98472619Y-52220833D01*
X98329761Y-52220833D01*
X98234523Y-52268452D01*
X98186904Y-52316071D01*
X98139285Y-52411309D01*
X98139285Y-52649404D01*
X98186904Y-52744642D01*
X98234523Y-52792261D01*
X98329761Y-52839880D01*
X98615476Y-52839880D01*
X98710714Y-52792261D01*
X98758333Y-52744642D01*
%TO.C,6*%
X155384523Y-51839880D02*
X155575000Y-51839880D01*
X155670238Y-51887500D01*
X155717857Y-51935119D01*
X155813095Y-52077976D01*
X155860714Y-52268452D01*
X155860714Y-52649404D01*
X155813095Y-52744642D01*
X155765476Y-52792261D01*
X155670238Y-52839880D01*
X155479761Y-52839880D01*
X155384523Y-52792261D01*
X155336904Y-52744642D01*
X155289285Y-52649404D01*
X155289285Y-52411309D01*
X155336904Y-52316071D01*
X155384523Y-52268452D01*
X155479761Y-52220833D01*
X155670238Y-52220833D01*
X155765476Y-52268452D01*
X155813095Y-52316071D01*
X155860714Y-52411309D01*
%TO.C,2.75u*%
X197984821Y-128135119D02*
X197937202Y-128087500D01*
X197841964Y-128039880D01*
X197603869Y-128039880D01*
X197508630Y-128087500D01*
X197461011Y-128135119D01*
X197413392Y-128230357D01*
X197413392Y-128325595D01*
X197461011Y-128468452D01*
X198032440Y-129039880D01*
X197413392Y-129039880D01*
X196984821Y-128944642D02*
X196937202Y-128992261D01*
X196984821Y-129039880D01*
X197032440Y-128992261D01*
X196984821Y-128944642D01*
X196984821Y-129039880D01*
X196603869Y-128039880D02*
X195937202Y-128039880D01*
X196365773Y-129039880D01*
X195080059Y-128039880D02*
X195556250Y-128039880D01*
X195603869Y-128516071D01*
X195556250Y-128468452D01*
X195461011Y-128420833D01*
X195222916Y-128420833D01*
X195127678Y-128468452D01*
X195080059Y-128516071D01*
X195032440Y-128611309D01*
X195032440Y-128849404D01*
X195080059Y-128944642D01*
X195127678Y-128992261D01*
X195222916Y-129039880D01*
X195461011Y-129039880D01*
X195556250Y-128992261D01*
X195603869Y-128944642D01*
X194175297Y-128373214D02*
X194175297Y-129039880D01*
X194603869Y-128373214D02*
X194603869Y-128897023D01*
X194556250Y-128992261D01*
X194461011Y-129039880D01*
X194318154Y-129039880D01*
X194222916Y-128992261D01*
X194175297Y-128944642D01*
X185928571Y-129547619D02*
X185880952Y-129500000D01*
X185785714Y-129452380D01*
X185547619Y-129452380D01*
X185452380Y-129500000D01*
X185404761Y-129547619D01*
X185357142Y-129642857D01*
X185357142Y-129738095D01*
X185404761Y-129880952D01*
X185976190Y-130452380D01*
X185357142Y-130452380D01*
X184928571Y-130357142D02*
X184880952Y-130404761D01*
X184928571Y-130452380D01*
X184976190Y-130404761D01*
X184928571Y-130357142D01*
X184928571Y-130452380D01*
X184547619Y-129452380D02*
X183880952Y-129452380D01*
X184309523Y-130452380D01*
X183023809Y-129452380D02*
X183500000Y-129452380D01*
X183547619Y-129928571D01*
X183500000Y-129880952D01*
X183404761Y-129833333D01*
X183166666Y-129833333D01*
X183071428Y-129880952D01*
X183023809Y-129928571D01*
X182976190Y-130023809D01*
X182976190Y-130261904D01*
X183023809Y-130357142D01*
X183071428Y-130404761D01*
X183166666Y-130452380D01*
X183404761Y-130452380D01*
X183500000Y-130404761D01*
X183547619Y-130357142D01*
X182119047Y-129785714D02*
X182119047Y-130452380D01*
X182547619Y-129785714D02*
X182547619Y-130309523D01*
X182500000Y-130404761D01*
X182404761Y-130452380D01*
X182261904Y-130452380D01*
X182166666Y-130404761D01*
X182119047Y-130357142D01*
X209928571Y-129547619D02*
X209880952Y-129500000D01*
X209785714Y-129452380D01*
X209547619Y-129452380D01*
X209452380Y-129500000D01*
X209404761Y-129547619D01*
X209357142Y-129642857D01*
X209357142Y-129738095D01*
X209404761Y-129880952D01*
X209976190Y-130452380D01*
X209357142Y-130452380D01*
X208928571Y-130357142D02*
X208880952Y-130404761D01*
X208928571Y-130452380D01*
X208976190Y-130404761D01*
X208928571Y-130357142D01*
X208928571Y-130452380D01*
X208547619Y-129452380D02*
X207880952Y-129452380D01*
X208309523Y-130452380D01*
X207023809Y-129452380D02*
X207500000Y-129452380D01*
X207547619Y-129928571D01*
X207500000Y-129880952D01*
X207404761Y-129833333D01*
X207166666Y-129833333D01*
X207071428Y-129880952D01*
X207023809Y-129928571D01*
X206976190Y-130023809D01*
X206976190Y-130261904D01*
X207023809Y-130357142D01*
X207071428Y-130404761D01*
X207166666Y-130452380D01*
X207404761Y-130452380D01*
X207500000Y-130404761D01*
X207547619Y-130357142D01*
X206119047Y-129785714D02*
X206119047Y-130452380D01*
X206547619Y-129785714D02*
X206547619Y-130309523D01*
X206500000Y-130404761D01*
X206404761Y-130452380D01*
X206261904Y-130452380D01*
X206166666Y-130404761D01*
X206119047Y-130357142D01*
%TO.C,"*%
X265302976Y-90189880D02*
X265302976Y-90380357D01*
X264922023Y-90189880D02*
X264922023Y-90380357D01*
X265064880Y-91702380D02*
X265160119Y-91892857D01*
%TO.C,Esc*%
X42322619Y-52316071D02*
X41989285Y-52316071D01*
X41846428Y-52839880D02*
X42322619Y-52839880D01*
X42322619Y-51839880D01*
X41846428Y-51839880D01*
X41465476Y-52792261D02*
X41370238Y-52839880D01*
X41179761Y-52839880D01*
X41084523Y-52792261D01*
X41036904Y-52697023D01*
X41036904Y-52649404D01*
X41084523Y-52554166D01*
X41179761Y-52506547D01*
X41322619Y-52506547D01*
X41417857Y-52458928D01*
X41465476Y-52363690D01*
X41465476Y-52316071D01*
X41417857Y-52220833D01*
X41322619Y-52173214D01*
X41179761Y-52173214D01*
X41084523Y-52220833D01*
X40179761Y-52792261D02*
X40275000Y-52839880D01*
X40465476Y-52839880D01*
X40560714Y-52792261D01*
X40608333Y-52744642D01*
X40655952Y-52649404D01*
X40655952Y-52363690D01*
X40608333Y-52268452D01*
X40560714Y-52220833D01*
X40465476Y-52173214D01*
X40275000Y-52173214D01*
X40179761Y-52220833D01*
%TO.C,1.50u*%
X95019642Y-129039880D02*
X95591071Y-129039880D01*
X95305357Y-129039880D02*
X95305357Y-128039880D01*
X95400595Y-128182738D01*
X95495833Y-128277976D01*
X95591071Y-128325595D01*
X94591071Y-128944642D02*
X94543452Y-128992261D01*
X94591071Y-129039880D01*
X94638690Y-128992261D01*
X94591071Y-128944642D01*
X94591071Y-129039880D01*
X93638690Y-128039880D02*
X94114880Y-128039880D01*
X94162500Y-128516071D01*
X94114880Y-128468452D01*
X94019642Y-128420833D01*
X93781547Y-128420833D01*
X93686309Y-128468452D01*
X93638690Y-128516071D01*
X93591071Y-128611309D01*
X93591071Y-128849404D01*
X93638690Y-128944642D01*
X93686309Y-128992261D01*
X93781547Y-129039880D01*
X94019642Y-129039880D01*
X94114880Y-128992261D01*
X94162500Y-128944642D01*
X92972023Y-128039880D02*
X92876785Y-128039880D01*
X92781547Y-128087500D01*
X92733928Y-128135119D01*
X92686309Y-128230357D01*
X92638690Y-128420833D01*
X92638690Y-128658928D01*
X92686309Y-128849404D01*
X92733928Y-128944642D01*
X92781547Y-128992261D01*
X92876785Y-129039880D01*
X92972023Y-129039880D01*
X93067261Y-128992261D01*
X93114880Y-128944642D01*
X93162500Y-128849404D01*
X93210119Y-128658928D01*
X93210119Y-128420833D01*
X93162500Y-128230357D01*
X93114880Y-128135119D01*
X93067261Y-128087500D01*
X92972023Y-128039880D01*
X91781547Y-128373214D02*
X91781547Y-129039880D01*
X92210119Y-128373214D02*
X92210119Y-128897023D01*
X92162500Y-128992261D01*
X92067261Y-129039880D01*
X91924404Y-129039880D01*
X91829166Y-128992261D01*
X91781547Y-128944642D01*
%TO.C,=*%
X270255952Y-52316071D02*
X269494047Y-52316071D01*
X269494047Y-52601785D02*
X270255952Y-52601785D01*
%TO.C,3u*%
X137310714Y-128039880D02*
X136691666Y-128039880D01*
X137025000Y-128420833D01*
X136882142Y-128420833D01*
X136786904Y-128468452D01*
X136739285Y-128516071D01*
X136691666Y-128611309D01*
X136691666Y-128849404D01*
X136739285Y-128944642D01*
X136786904Y-128992261D01*
X136882142Y-129039880D01*
X137167857Y-129039880D01*
X137263095Y-128992261D01*
X137310714Y-128944642D01*
X135834523Y-128373214D02*
X135834523Y-129039880D01*
X136263095Y-128373214D02*
X136263095Y-128897023D01*
X136215476Y-128992261D01*
X136120238Y-129039880D01*
X135977380Y-129039880D01*
X135882142Y-128992261D01*
X135834523Y-128944642D01*
X118285714Y-129452380D02*
X117666666Y-129452380D01*
X118000000Y-129833333D01*
X117857142Y-129833333D01*
X117761904Y-129880952D01*
X117714285Y-129928571D01*
X117666666Y-130023809D01*
X117666666Y-130261904D01*
X117714285Y-130357142D01*
X117761904Y-130404761D01*
X117857142Y-130452380D01*
X118142857Y-130452380D01*
X118238095Y-130404761D01*
X118285714Y-130357142D01*
X116809523Y-129785714D02*
X116809523Y-130452380D01*
X117238095Y-129785714D02*
X117238095Y-130309523D01*
X117190476Y-130404761D01*
X117095238Y-130452380D01*
X116952380Y-130452380D01*
X116857142Y-130404761D01*
X116809523Y-130357142D01*
X156285714Y-129452380D02*
X155666666Y-129452380D01*
X156000000Y-129833333D01*
X155857142Y-129833333D01*
X155761904Y-129880952D01*
X155714285Y-129928571D01*
X155666666Y-130023809D01*
X155666666Y-130261904D01*
X155714285Y-130357142D01*
X155761904Y-130404761D01*
X155857142Y-130452380D01*
X156142857Y-130452380D01*
X156238095Y-130404761D01*
X156285714Y-130357142D01*
X154809523Y-129785714D02*
X154809523Y-130452380D01*
X155238095Y-129785714D02*
X155238095Y-130309523D01*
X155190476Y-130404761D01*
X155095238Y-130452380D01*
X154952380Y-130452380D01*
X154857142Y-130404761D01*
X154809523Y-130357142D01*
%TO.C,1u*%
X289091666Y-52839880D02*
X289663095Y-52839880D01*
X289377380Y-52839880D02*
X289377380Y-51839880D01*
X289472619Y-51982738D01*
X289567857Y-52077976D01*
X289663095Y-52125595D01*
X288234523Y-52173214D02*
X288234523Y-52839880D01*
X288663095Y-52173214D02*
X288663095Y-52697023D01*
X288615476Y-52792261D01*
X288520238Y-52839880D01*
X288377380Y-52839880D01*
X288282142Y-52792261D01*
X288234523Y-52744642D01*
%TO.C,K*%
X208224404Y-90939880D02*
X208224404Y-89939880D01*
X207652976Y-90939880D02*
X208081547Y-90368452D01*
X207652976Y-89939880D02*
X208224404Y-90511309D01*
%TO.C,1.25u*%
X45013392Y-109989880D02*
X45584821Y-109989880D01*
X45299107Y-109989880D02*
X45299107Y-108989880D01*
X45394345Y-109132738D01*
X45489583Y-109227976D01*
X45584821Y-109275595D01*
X44584821Y-109894642D02*
X44537202Y-109942261D01*
X44584821Y-109989880D01*
X44632440Y-109942261D01*
X44584821Y-109894642D01*
X44584821Y-109989880D01*
X44156250Y-109085119D02*
X44108630Y-109037500D01*
X44013392Y-108989880D01*
X43775297Y-108989880D01*
X43680059Y-109037500D01*
X43632440Y-109085119D01*
X43584821Y-109180357D01*
X43584821Y-109275595D01*
X43632440Y-109418452D01*
X44203869Y-109989880D01*
X43584821Y-109989880D01*
X42680059Y-108989880D02*
X43156250Y-108989880D01*
X43203869Y-109466071D01*
X43156250Y-109418452D01*
X43061011Y-109370833D01*
X42822916Y-109370833D01*
X42727678Y-109418452D01*
X42680059Y-109466071D01*
X42632440Y-109561309D01*
X42632440Y-109799404D01*
X42680059Y-109894642D01*
X42727678Y-109942261D01*
X42822916Y-109989880D01*
X43061011Y-109989880D01*
X43156250Y-109942261D01*
X43203869Y-109894642D01*
X41775297Y-109323214D02*
X41775297Y-109989880D01*
X42203869Y-109323214D02*
X42203869Y-109847023D01*
X42156250Y-109942261D01*
X42061011Y-109989880D01*
X41918154Y-109989880D01*
X41822916Y-109942261D01*
X41775297Y-109894642D01*
%TO.C,2*%
X79660714Y-51935119D02*
X79613095Y-51887500D01*
X79517857Y-51839880D01*
X79279761Y-51839880D01*
X79184523Y-51887500D01*
X79136904Y-51935119D01*
X79089285Y-52030357D01*
X79089285Y-52125595D01*
X79136904Y-52268452D01*
X79708333Y-52839880D01*
X79089285Y-52839880D01*
%TO.C,\u005C*%
X303641071Y-70567142D02*
X302783928Y-71852857D01*
%TO.C,3u*%
X213510714Y-128039880D02*
X212891666Y-128039880D01*
X213225000Y-128420833D01*
X213082142Y-128420833D01*
X212986904Y-128468452D01*
X212939285Y-128516071D01*
X212891666Y-128611309D01*
X212891666Y-128849404D01*
X212939285Y-128944642D01*
X212986904Y-128992261D01*
X213082142Y-129039880D01*
X213367857Y-129039880D01*
X213463095Y-128992261D01*
X213510714Y-128944642D01*
X212034523Y-128373214D02*
X212034523Y-129039880D01*
X212463095Y-128373214D02*
X212463095Y-128897023D01*
X212415476Y-128992261D01*
X212320238Y-129039880D01*
X212177380Y-129039880D01*
X212082142Y-128992261D01*
X212034523Y-128944642D01*
X194535714Y-129452380D02*
X193916666Y-129452380D01*
X194250000Y-129833333D01*
X194107142Y-129833333D01*
X194011904Y-129880952D01*
X193964285Y-129928571D01*
X193916666Y-130023809D01*
X193916666Y-130261904D01*
X193964285Y-130357142D01*
X194011904Y-130404761D01*
X194107142Y-130452380D01*
X194392857Y-130452380D01*
X194488095Y-130404761D01*
X194535714Y-130357142D01*
X193059523Y-129785714D02*
X193059523Y-130452380D01*
X193488095Y-129785714D02*
X193488095Y-130309523D01*
X193440476Y-130404761D01*
X193345238Y-130452380D01*
X193202380Y-130452380D01*
X193107142Y-130404761D01*
X193059523Y-130357142D01*
X232535714Y-129452380D02*
X231916666Y-129452380D01*
X232250000Y-129833333D01*
X232107142Y-129833333D01*
X232011904Y-129880952D01*
X231964285Y-129928571D01*
X231916666Y-130023809D01*
X231916666Y-130261904D01*
X231964285Y-130357142D01*
X232011904Y-130404761D01*
X232107142Y-130452380D01*
X232392857Y-130452380D01*
X232488095Y-130404761D01*
X232535714Y-130357142D01*
X231059523Y-129785714D02*
X231059523Y-130452380D01*
X231488095Y-129785714D02*
X231488095Y-130309523D01*
X231440476Y-130404761D01*
X231345238Y-130452380D01*
X231202380Y-130452380D01*
X231107142Y-130404761D01*
X231059523Y-130357142D01*
%TO.C,Full*%
X49252083Y-90416071D02*
X49585416Y-90416071D01*
X49585416Y-90939880D02*
X49585416Y-89939880D01*
X49109226Y-89939880D01*
X48299702Y-90273214D02*
X48299702Y-90939880D01*
X48728273Y-90273214D02*
X48728273Y-90797023D01*
X48680654Y-90892261D01*
X48585416Y-90939880D01*
X48442559Y-90939880D01*
X48347321Y-90892261D01*
X48299702Y-90844642D01*
X47680654Y-90939880D02*
X47775892Y-90892261D01*
X47823511Y-90797023D01*
X47823511Y-89939880D01*
X47156845Y-90939880D02*
X47252083Y-90892261D01*
X47299702Y-90797023D01*
X47299702Y-89939880D01*
%TO.C,7*%
X174958333Y-51839880D02*
X174291666Y-51839880D01*
X174720238Y-52839880D01*
%TO.C,O*%
X222345238Y-70889880D02*
X222154761Y-70889880D01*
X222059523Y-70937500D01*
X221964285Y-71032738D01*
X221916666Y-71223214D01*
X221916666Y-71556547D01*
X221964285Y-71747023D01*
X222059523Y-71842261D01*
X222154761Y-71889880D01*
X222345238Y-71889880D01*
X222440476Y-71842261D01*
X222535714Y-71747023D01*
X222583333Y-71556547D01*
X222583333Y-71223214D01*
X222535714Y-71032738D01*
X222440476Y-70937500D01*
X222345238Y-70889880D01*
%TO.C,1.50u*%
X304569642Y-129039880D02*
X305141071Y-129039880D01*
X304855357Y-129039880D02*
X304855357Y-128039880D01*
X304950595Y-128182738D01*
X305045833Y-128277976D01*
X305141071Y-128325595D01*
X304141071Y-128944642D02*
X304093452Y-128992261D01*
X304141071Y-129039880D01*
X304188690Y-128992261D01*
X304141071Y-128944642D01*
X304141071Y-129039880D01*
X303188690Y-128039880D02*
X303664880Y-128039880D01*
X303712500Y-128516071D01*
X303664880Y-128468452D01*
X303569642Y-128420833D01*
X303331547Y-128420833D01*
X303236309Y-128468452D01*
X303188690Y-128516071D01*
X303141071Y-128611309D01*
X303141071Y-128849404D01*
X303188690Y-128944642D01*
X303236309Y-128992261D01*
X303331547Y-129039880D01*
X303569642Y-129039880D01*
X303664880Y-128992261D01*
X303712500Y-128944642D01*
X302522023Y-128039880D02*
X302426785Y-128039880D01*
X302331547Y-128087500D01*
X302283928Y-128135119D01*
X302236309Y-128230357D01*
X302188690Y-128420833D01*
X302188690Y-128658928D01*
X302236309Y-128849404D01*
X302283928Y-128944642D01*
X302331547Y-128992261D01*
X302426785Y-129039880D01*
X302522023Y-129039880D01*
X302617261Y-128992261D01*
X302664880Y-128944642D01*
X302712500Y-128849404D01*
X302760119Y-128658928D01*
X302760119Y-128420833D01*
X302712500Y-128230357D01*
X302664880Y-128135119D01*
X302617261Y-128087500D01*
X302522023Y-128039880D01*
X301331547Y-128373214D02*
X301331547Y-129039880D01*
X301760119Y-128373214D02*
X301760119Y-128897023D01*
X301712500Y-128992261D01*
X301617261Y-129039880D01*
X301474404Y-129039880D01*
X301379166Y-128992261D01*
X301331547Y-128944642D01*
%TO.C,2.25u*%
X55109821Y-109085119D02*
X55062202Y-109037500D01*
X54966964Y-108989880D01*
X54728869Y-108989880D01*
X54633630Y-109037500D01*
X54586011Y-109085119D01*
X54538392Y-109180357D01*
X54538392Y-109275595D01*
X54586011Y-109418452D01*
X55157440Y-109989880D01*
X54538392Y-109989880D01*
X54109821Y-109894642D02*
X54062202Y-109942261D01*
X54109821Y-109989880D01*
X54157440Y-109942261D01*
X54109821Y-109894642D01*
X54109821Y-109989880D01*
X53681250Y-109085119D02*
X53633630Y-109037500D01*
X53538392Y-108989880D01*
X53300297Y-108989880D01*
X53205059Y-109037500D01*
X53157440Y-109085119D01*
X53109821Y-109180357D01*
X53109821Y-109275595D01*
X53157440Y-109418452D01*
X53728869Y-109989880D01*
X53109821Y-109989880D01*
X52205059Y-108989880D02*
X52681250Y-108989880D01*
X52728869Y-109466071D01*
X52681250Y-109418452D01*
X52586011Y-109370833D01*
X52347916Y-109370833D01*
X52252678Y-109418452D01*
X52205059Y-109466071D01*
X52157440Y-109561309D01*
X52157440Y-109799404D01*
X52205059Y-109894642D01*
X52252678Y-109942261D01*
X52347916Y-109989880D01*
X52586011Y-109989880D01*
X52681250Y-109942261D01*
X52728869Y-109894642D01*
X51300297Y-109323214D02*
X51300297Y-109989880D01*
X51728869Y-109323214D02*
X51728869Y-109847023D01*
X51681250Y-109942261D01*
X51586011Y-109989880D01*
X51443154Y-109989880D01*
X51347916Y-109942261D01*
X51300297Y-109894642D01*
%TO.C,4*%
X117284523Y-52173214D02*
X117284523Y-52839880D01*
X117522619Y-51792261D02*
X117760714Y-52506547D01*
X117141666Y-52506547D01*
%TO.C,U*%
X184435714Y-70889880D02*
X184435714Y-71699404D01*
X184388095Y-71794642D01*
X184340476Y-71842261D01*
X184245238Y-71889880D01*
X184054761Y-71889880D01*
X183959523Y-71842261D01*
X183911904Y-71794642D01*
X183864285Y-71699404D01*
X183864285Y-70889880D01*
%TO.C,USB1*%
X51840476Y-47199404D02*
X51840476Y-47847023D01*
X51802380Y-47923214D01*
X51764285Y-47961309D01*
X51688095Y-47999404D01*
X51535714Y-47999404D01*
X51459523Y-47961309D01*
X51421428Y-47923214D01*
X51383333Y-47847023D01*
X51383333Y-47199404D01*
X51040476Y-47961309D02*
X50926190Y-47999404D01*
X50735714Y-47999404D01*
X50659523Y-47961309D01*
X50621428Y-47923214D01*
X50583333Y-47847023D01*
X50583333Y-47770833D01*
X50621428Y-47694642D01*
X50659523Y-47656547D01*
X50735714Y-47618452D01*
X50888095Y-47580357D01*
X50964285Y-47542261D01*
X51002380Y-47504166D01*
X51040476Y-47427976D01*
X51040476Y-47351785D01*
X51002380Y-47275595D01*
X50964285Y-47237500D01*
X50888095Y-47199404D01*
X50697619Y-47199404D01*
X50583333Y-47237500D01*
X49973809Y-47580357D02*
X49859523Y-47618452D01*
X49821428Y-47656547D01*
X49783333Y-47732738D01*
X49783333Y-47847023D01*
X49821428Y-47923214D01*
X49859523Y-47961309D01*
X49935714Y-47999404D01*
X50240476Y-47999404D01*
X50240476Y-47199404D01*
X49973809Y-47199404D01*
X49897619Y-47237500D01*
X49859523Y-47275595D01*
X49821428Y-47351785D01*
X49821428Y-47427976D01*
X49859523Y-47504166D01*
X49897619Y-47542261D01*
X49973809Y-47580357D01*
X50240476Y-47580357D01*
X49021428Y-47999404D02*
X49478571Y-47999404D01*
X49250000Y-47999404D02*
X49250000Y-47199404D01*
X49326190Y-47313690D01*
X49402380Y-47389880D01*
X49478571Y-47427976D01*
%TO.C,J2*%
X35907142Y-94819761D02*
X35764285Y-94867380D01*
X35526190Y-94867380D01*
X35430952Y-94819761D01*
X35383333Y-94772142D01*
X35335714Y-94676904D01*
X35335714Y-94581666D01*
X35383333Y-94486428D01*
X35430952Y-94438809D01*
X35526190Y-94391190D01*
X35716666Y-94343571D01*
X35811904Y-94295952D01*
X35859523Y-94248333D01*
X35907142Y-94153095D01*
X35907142Y-94057857D01*
X35859523Y-93962619D01*
X35811904Y-93915000D01*
X35716666Y-93867380D01*
X35478571Y-93867380D01*
X35335714Y-93915000D01*
X35002380Y-93867380D02*
X34764285Y-94867380D01*
X34573809Y-94153095D01*
X34383333Y-94867380D01*
X34145238Y-93867380D01*
X33764285Y-94867380D02*
X33764285Y-93867380D01*
X33526190Y-93867380D01*
X33383333Y-93915000D01*
X33288095Y-94010238D01*
X33240476Y-94105476D01*
X33192857Y-94295952D01*
X33192857Y-94438809D01*
X33240476Y-94629285D01*
X33288095Y-94724523D01*
X33383333Y-94819761D01*
X33526190Y-94867380D01*
X33764285Y-94867380D01*
%TO.C,SW1*%
X78148095Y-60932380D02*
X78481428Y-60456190D01*
X78719523Y-60932380D02*
X78719523Y-59932380D01*
X78338571Y-59932380D01*
X78243333Y-59980000D01*
X78195714Y-60027619D01*
X78148095Y-60122857D01*
X78148095Y-60265714D01*
X78195714Y-60360952D01*
X78243333Y-60408571D01*
X78338571Y-60456190D01*
X78719523Y-60456190D01*
X77338571Y-60884761D02*
X77433809Y-60932380D01*
X77624285Y-60932380D01*
X77719523Y-60884761D01*
X77767142Y-60789523D01*
X77767142Y-60408571D01*
X77719523Y-60313333D01*
X77624285Y-60265714D01*
X77433809Y-60265714D01*
X77338571Y-60313333D01*
X77290952Y-60408571D01*
X77290952Y-60503809D01*
X77767142Y-60599047D01*
X76910000Y-60884761D02*
X76814761Y-60932380D01*
X76624285Y-60932380D01*
X76529047Y-60884761D01*
X76481428Y-60789523D01*
X76481428Y-60741904D01*
X76529047Y-60646666D01*
X76624285Y-60599047D01*
X76767142Y-60599047D01*
X76862380Y-60551428D01*
X76910000Y-60456190D01*
X76910000Y-60408571D01*
X76862380Y-60313333D01*
X76767142Y-60265714D01*
X76624285Y-60265714D01*
X76529047Y-60313333D01*
X75671904Y-60884761D02*
X75767142Y-60932380D01*
X75957619Y-60932380D01*
X76052857Y-60884761D01*
X76100476Y-60789523D01*
X76100476Y-60408571D01*
X76052857Y-60313333D01*
X75957619Y-60265714D01*
X75767142Y-60265714D01*
X75671904Y-60313333D01*
X75624285Y-60408571D01*
X75624285Y-60503809D01*
X76100476Y-60599047D01*
X75338571Y-60265714D02*
X74957619Y-60265714D01*
X75195714Y-59932380D02*
X75195714Y-60789523D01*
X75148095Y-60884761D01*
X75052857Y-60932380D01*
X74957619Y-60932380D01*
%TO.C,U4*%
X49775000Y-50325000D02*
X49775000Y-53225000D01*
X51075000Y-50325000D02*
X51075000Y-53225000D01*
X49775000Y-50325000D02*
X51075000Y-50325000D01*
X51075000Y-53225000D02*
X49775000Y-53225000D01*
D11*
%TO.C,D19*%
X107275000Y-109500000D02*
X105275000Y-109500000D01*
X107275000Y-109500000D02*
X107275000Y-105600000D01*
X105275000Y-109500000D02*
X105275000Y-105600000D01*
%TO.C,C_3V-Decoup8*%
X57540000Y-90542164D02*
X57540000Y-90757836D01*
X58260000Y-90542164D02*
X58260000Y-90757836D01*
%TO.C,D46*%
X221575000Y-109500000D02*
X219575000Y-109500000D01*
X221575000Y-109500000D02*
X221575000Y-105600000D01*
X219575000Y-109500000D02*
X219575000Y-105600000D01*
D12*
%TO.C,D74*%
X103500000Y-126325000D02*
X103950000Y-125975000D01*
X103950000Y-125975000D02*
X103500000Y-125625000D01*
X103500000Y-125625000D02*
X103500000Y-126325000D01*
G36*
X103950000Y-125975000D02*
G01*
X103500000Y-126325000D01*
X103500000Y-125625000D01*
X103950000Y-125975000D01*
G37*
X103950000Y-125975000D02*
X103500000Y-126325000D01*
X103500000Y-125625000D01*
X103950000Y-125975000D01*
D11*
%TO.C,D15*%
X97775000Y-129500000D02*
X97775000Y-125600000D01*
X95775000Y-129500000D02*
X95775000Y-125600000D01*
X97775000Y-129500000D02*
X95775000Y-129500000D01*
D12*
%TO.C,D71*%
X72000000Y-48325000D02*
X71550000Y-48675000D01*
X71550000Y-48675000D02*
X72000000Y-49025000D01*
X72000000Y-49025000D02*
X72000000Y-48325000D01*
G36*
X72000000Y-49025000D02*
G01*
X71550000Y-48675000D01*
X72000000Y-48325000D01*
X72000000Y-49025000D01*
G37*
X72000000Y-49025000D02*
X71550000Y-48675000D01*
X72000000Y-48325000D01*
X72000000Y-49025000D01*
D11*
%TO.C,D63*%
X290725000Y-53900000D02*
X290725000Y-50000000D01*
X292725000Y-53900000D02*
X292725000Y-50000000D01*
X292725000Y-53900000D02*
X290725000Y-53900000D01*
%TO.C,D35*%
X188250000Y-71400000D02*
X188250000Y-67500000D01*
X188250000Y-71400000D02*
X186250000Y-71400000D01*
X186250000Y-71400000D02*
X186250000Y-67500000D01*
%TO.C,C_1V-Decoup2*%
X60785000Y-74707836D02*
X60785000Y-74492164D01*
X60065000Y-74707836D02*
X60065000Y-74492164D01*
%TO.C,D26*%
X150150000Y-71400000D02*
X148150000Y-71400000D01*
X148150000Y-71400000D02*
X148150000Y-67500000D01*
X150150000Y-71400000D02*
X150150000Y-67500000D01*
%TO.C,C_LDO2*%
X46557836Y-60010000D02*
X46342164Y-60010000D01*
X46557836Y-59290000D02*
X46342164Y-59290000D01*
%TO.C,D54*%
X264450000Y-71400000D02*
X262450000Y-71400000D01*
X264450000Y-71400000D02*
X264450000Y-67500000D01*
X262450000Y-71400000D02*
X262450000Y-67500000D01*
%TO.C,C_3V-Decoup2*%
X54340000Y-77082836D02*
X54340000Y-76867164D01*
X55060000Y-77082836D02*
X55060000Y-76867164D01*
%TO.C,D34*%
X178725000Y-53300000D02*
X178725000Y-49400000D01*
X178725000Y-53300000D02*
X176725000Y-53300000D01*
X176725000Y-53300000D02*
X176725000Y-49400000D01*
%TO.C,D50*%
X248175000Y-90475000D02*
X248175000Y-86575000D01*
X250175000Y-90475000D02*
X250175000Y-86575000D01*
X250175000Y-90475000D02*
X248175000Y-90475000D01*
%TO.C,C_Flash1*%
X74940000Y-74732836D02*
X74940000Y-74517164D01*
X75660000Y-74732836D02*
X75660000Y-74517164D01*
D12*
%TO.C,D84*%
X299350000Y-104125000D02*
X299000000Y-103675000D01*
X299000000Y-103675000D02*
X298650000Y-104125000D01*
X298650000Y-104125000D02*
X299350000Y-104125000D01*
G36*
X299350000Y-104125000D02*
G01*
X298650000Y-104125000D01*
X299000000Y-103675000D01*
X299350000Y-104125000D01*
G37*
X299350000Y-104125000D02*
X298650000Y-104125000D01*
X299000000Y-103675000D01*
X299350000Y-104125000D01*
D11*
%TO.C,C_3V-Decoup6*%
X64110000Y-79782836D02*
X64110000Y-79567164D01*
X63390000Y-79782836D02*
X63390000Y-79567164D01*
%TO.C,D48*%
X235875000Y-53300000D02*
X233875000Y-53300000D01*
X235875000Y-53300000D02*
X235875000Y-49400000D01*
X233875000Y-53300000D02*
X233875000Y-49400000D01*
%TO.C,D22*%
X133875000Y-90450000D02*
X133875000Y-86550000D01*
X135875000Y-90450000D02*
X133875000Y-90450000D01*
X135875000Y-90450000D02*
X135875000Y-86550000D01*
%TO.C,C_Crystal2*%
X57660000Y-93532836D02*
X57660000Y-93317164D01*
X56940000Y-93532836D02*
X56940000Y-93317164D01*
%TO.C,D40*%
X207300000Y-71400000D02*
X205300000Y-71400000D01*
X207300000Y-71400000D02*
X207300000Y-67500000D01*
X205300000Y-71400000D02*
X205300000Y-67500000D01*
%TO.C,R_Crystal1*%
X58695000Y-90778641D02*
X58695000Y-90471359D01*
X59455000Y-90778641D02*
X59455000Y-90471359D01*
%TO.C,D14*%
X97775000Y-90450000D02*
X95775000Y-90450000D01*
X95775000Y-90450000D02*
X95775000Y-86550000D01*
X97775000Y-90450000D02*
X97775000Y-86550000D01*
%TO.C,R_LED1*%
X40683641Y-56390000D02*
X40376359Y-56390000D01*
X40683641Y-57150000D02*
X40376359Y-57150000D01*
D12*
%TO.C,D78*%
X185725000Y-126325000D02*
X186175000Y-125975000D01*
X186175000Y-125975000D02*
X185725000Y-125625000D01*
X185725000Y-125625000D02*
X185725000Y-126325000D01*
G36*
X186175000Y-125975000D02*
G01*
X185725000Y-126325000D01*
X185725000Y-125625000D01*
X186175000Y-125975000D01*
G37*
X186175000Y-125975000D02*
X185725000Y-126325000D01*
X185725000Y-125625000D01*
X186175000Y-125975000D01*
D11*
%TO.C,D10*%
X73950000Y-129500000D02*
X71950000Y-129500000D01*
X71950000Y-129500000D02*
X71950000Y-125600000D01*
X73950000Y-129500000D02*
X73950000Y-125600000D01*
D12*
%TO.C,D77*%
X205350000Y-48300000D02*
X204900000Y-48650000D01*
X204900000Y-48650000D02*
X205350000Y-49000000D01*
X205350000Y-49000000D02*
X205350000Y-48300000D01*
G36*
X205350000Y-49000000D02*
G01*
X204900000Y-48650000D01*
X205350000Y-48300000D01*
X205350000Y-49000000D01*
G37*
X205350000Y-49000000D02*
X204900000Y-48650000D01*
X205350000Y-48300000D01*
X205350000Y-49000000D01*
D11*
%TO.C,D61*%
X295400000Y-109500000D02*
X293400000Y-109500000D01*
X295400000Y-109500000D02*
X295400000Y-105600000D01*
X293400000Y-109500000D02*
X293400000Y-105600000D01*
%TO.C,D9*%
X67200000Y-109500000D02*
X67200000Y-105600000D01*
X69200000Y-109500000D02*
X67200000Y-109500000D01*
X69200000Y-109500000D02*
X69200000Y-105600000D01*
%TO.C,D37*%
X183500000Y-109500000D02*
X183500000Y-105600000D01*
X183500000Y-109500000D02*
X181500000Y-109500000D01*
X181500000Y-109500000D02*
X181500000Y-105600000D01*
%TO.C,C_1V-Decoup1*%
X56210000Y-76082836D02*
X56210000Y-75867164D01*
X55490000Y-76082836D02*
X55490000Y-75867164D01*
%TO.C,U1*%
X55490000Y-79640000D02*
X55490000Y-80290000D01*
X62060000Y-86860000D02*
X62710000Y-86860000D01*
X62060000Y-79640000D02*
X62710000Y-79640000D01*
X62710000Y-86860000D02*
X62710000Y-86210000D01*
X55490000Y-86860000D02*
X55490000Y-86210000D01*
X56140000Y-79640000D02*
X55490000Y-79640000D01*
X56140000Y-86860000D02*
X55490000Y-86860000D01*
%TO.C,D39*%
X197775000Y-53300000D02*
X195775000Y-53300000D01*
X197775000Y-53300000D02*
X197775000Y-49400000D01*
X195775000Y-53300000D02*
X195775000Y-49400000D01*
%TO.C,D2*%
X50125000Y-71400000D02*
X48125000Y-71400000D01*
X50125000Y-71400000D02*
X50125000Y-67500000D01*
X48125000Y-71400000D02*
X48125000Y-67500000D01*
%TO.C,D47*%
X214825000Y-129500000D02*
X214825000Y-125600000D01*
X216825000Y-129500000D02*
X216825000Y-125600000D01*
X216825000Y-129500000D02*
X214825000Y-129500000D01*
%TO.C,D6*%
X62425000Y-52350000D02*
X62425000Y-48450000D01*
X64425000Y-52350000D02*
X64425000Y-48450000D01*
X64425000Y-52350000D02*
X62425000Y-52350000D01*
%TO.C,C_3V-Decoup7*%
X52657836Y-78340000D02*
X52442164Y-78340000D01*
X52657836Y-79060000D02*
X52442164Y-79060000D01*
%TO.C,R_LED2*%
X45270000Y-90116359D02*
X45270000Y-90423641D01*
X44510000Y-90116359D02*
X44510000Y-90423641D01*
D12*
%TO.C,D72*%
X58175000Y-126325000D02*
X58625000Y-125975000D01*
X58625000Y-125975000D02*
X58175000Y-125625000D01*
X58175000Y-125625000D02*
X58175000Y-126325000D01*
G36*
X58625000Y-125975000D02*
G01*
X58175000Y-126325000D01*
X58175000Y-125625000D01*
X58625000Y-125975000D01*
G37*
X58625000Y-125975000D02*
X58175000Y-126325000D01*
X58175000Y-125625000D01*
X58625000Y-125975000D01*
%TO.C,D75*%
X148200000Y-48325000D02*
X147750000Y-48675000D01*
X147750000Y-48675000D02*
X148200000Y-49025000D01*
X148200000Y-49025000D02*
X148200000Y-48325000D01*
G36*
X148200000Y-49025000D02*
G01*
X147750000Y-48675000D01*
X148200000Y-48325000D01*
X148200000Y-49025000D01*
G37*
X148200000Y-49025000D02*
X147750000Y-48675000D01*
X148200000Y-48325000D01*
X148200000Y-49025000D01*
D11*
%TO.C,C_LDO1*%
X47557836Y-54265000D02*
X47342164Y-54265000D01*
X47557836Y-54985000D02*
X47342164Y-54985000D01*
%TO.C,J2*%
X35880000Y-83195000D02*
X35880000Y-93415000D01*
X35880000Y-93415000D02*
X33220000Y-93415000D01*
X33220000Y-83195000D02*
X33220000Y-93415000D01*
X35880000Y-83195000D02*
X33220000Y-83195000D01*
X35880000Y-81925000D02*
X35880000Y-80595000D01*
X35880000Y-80595000D02*
X34550000Y-80595000D01*
%TO.C,D1*%
X45375000Y-52350000D02*
X43375000Y-52350000D01*
X43375000Y-52350000D02*
X43375000Y-48450000D01*
X45375000Y-52350000D02*
X45375000Y-48450000D01*
%TO.C,D67*%
X310075000Y-109500000D02*
X310075000Y-105600000D01*
X312075000Y-109500000D02*
X310075000Y-109500000D01*
X312075000Y-109500000D02*
X312075000Y-105600000D01*
%TO.C,D13*%
X91000000Y-71400000D02*
X91000000Y-67500000D01*
X93000000Y-71400000D02*
X93000000Y-67500000D01*
X93000000Y-71400000D02*
X91000000Y-71400000D01*
%TO.C,R_DATA2*%
X56545000Y-75596359D02*
X56545000Y-75903641D01*
X57305000Y-75596359D02*
X57305000Y-75903641D01*
%TO.C,R_USB1*%
X49103641Y-49280000D02*
X48796359Y-49280000D01*
X49103641Y-48520000D02*
X48796359Y-48520000D01*
%TO.C,C_3V-Decoup4*%
X53507836Y-84610000D02*
X53292164Y-84610000D01*
X53507836Y-83890000D02*
X53292164Y-83890000D01*
%TO.C,D21*%
X131100000Y-71400000D02*
X129100000Y-71400000D01*
X131100000Y-71400000D02*
X131100000Y-67500000D01*
X129100000Y-71400000D02*
X129100000Y-67500000D01*
%TO.C,D52*%
X233875000Y-129500000D02*
X233875000Y-125600000D01*
X235875000Y-129500000D02*
X233875000Y-129500000D01*
X235875000Y-129500000D02*
X235875000Y-125600000D01*
%TO.C,R_DATA1*%
X57695000Y-75596359D02*
X57695000Y-75903641D01*
X58455000Y-75596359D02*
X58455000Y-75903641D01*
D12*
%TO.C,D76*%
X154450000Y-126325000D02*
X154900000Y-125975000D01*
X154900000Y-125975000D02*
X154450000Y-125625000D01*
X154450000Y-125625000D02*
X154450000Y-126325000D01*
G36*
X154900000Y-125975000D02*
G01*
X154450000Y-126325000D01*
X154450000Y-125625000D01*
X154900000Y-125975000D01*
G37*
X154900000Y-125975000D02*
X154450000Y-126325000D01*
X154450000Y-125625000D01*
X154900000Y-125975000D01*
%TO.C,D79*%
X243450000Y-48325000D02*
X243000000Y-48675000D01*
X243000000Y-48675000D02*
X243450000Y-49025000D01*
X243450000Y-49025000D02*
X243450000Y-48325000D01*
G36*
X243450000Y-49025000D02*
G01*
X243000000Y-48675000D01*
X243450000Y-48325000D01*
X243450000Y-49025000D01*
G37*
X243450000Y-49025000D02*
X243000000Y-48675000D01*
X243450000Y-48325000D01*
X243450000Y-49025000D01*
D11*
%TO.C,D4*%
X57275000Y-109500000D02*
X55275000Y-109500000D01*
X55275000Y-109500000D02*
X55275000Y-105600000D01*
X57275000Y-109500000D02*
X57275000Y-105600000D01*
%TO.C,D3*%
X52525000Y-90450000D02*
X52525000Y-86550000D01*
X52525000Y-90450000D02*
X50525000Y-90450000D01*
X50525000Y-90450000D02*
X50525000Y-86550000D01*
%TO.C,D36*%
X193025000Y-90450000D02*
X191025000Y-90450000D01*
X191025000Y-90450000D02*
X191025000Y-86550000D01*
X193025000Y-90450000D02*
X193025000Y-86550000D01*
%TO.C,D12*%
X83475000Y-53300000D02*
X83475000Y-49400000D01*
X83475000Y-53300000D02*
X81475000Y-53300000D01*
X81475000Y-53300000D02*
X81475000Y-49400000D01*
%TO.C,D25*%
X140625000Y-53300000D02*
X138625000Y-53300000D01*
X138625000Y-53300000D02*
X138625000Y-49400000D01*
X140625000Y-53300000D02*
X140625000Y-49400000D01*
%TO.C,SW1*%
X74305000Y-64355000D02*
X74305000Y-61695000D01*
X79505000Y-64355000D02*
X79505000Y-63025000D01*
X78175000Y-64355000D02*
X79505000Y-64355000D01*
X76905000Y-64355000D02*
X74305000Y-64355000D01*
X76905000Y-61695000D02*
X74305000Y-61695000D01*
X76905000Y-64355000D02*
X76905000Y-61695000D01*
%TO.C,D30*%
X157675000Y-53300000D02*
X157675000Y-49400000D01*
X159675000Y-53300000D02*
X157675000Y-53300000D01*
X159675000Y-53300000D02*
X159675000Y-49400000D01*
%TO.C,D51*%
X240650000Y-109500000D02*
X238650000Y-109500000D01*
X240650000Y-109500000D02*
X240650000Y-105600000D01*
X238650000Y-109500000D02*
X238650000Y-105600000D01*
%TO.C,J1*%
X58765000Y-63360000D02*
X56265000Y-63360000D01*
X56265000Y-63360000D02*
X56265000Y-62310000D01*
X56265000Y-58190000D02*
X55275000Y-58190000D01*
X58765000Y-57140000D02*
X56265000Y-57140000D01*
X60735000Y-58310000D02*
X60735000Y-62190000D01*
X56265000Y-57140000D02*
X56265000Y-58190000D01*
%TO.C,R_USB2*%
X52621359Y-48980000D02*
X52928641Y-48980000D01*
X52621359Y-48220000D02*
X52928641Y-48220000D01*
%TO.C,D28*%
X145400000Y-109500000D02*
X145400000Y-105600000D01*
X143400000Y-109500000D02*
X143400000Y-105600000D01*
X145400000Y-109500000D02*
X143400000Y-109500000D01*
%TO.C,D38*%
X178725000Y-129500000D02*
X178725000Y-125600000D01*
X176725000Y-129500000D02*
X176725000Y-125600000D01*
X178725000Y-129500000D02*
X176725000Y-129500000D01*
%TO.C,C_Crystal1*%
X63040000Y-93317164D02*
X63040000Y-93532836D01*
X63760000Y-93317164D02*
X63760000Y-93532836D01*
%TO.C,D45*%
X231100000Y-90450000D02*
X231100000Y-86550000D01*
X231100000Y-90450000D02*
X229100000Y-90450000D01*
X229100000Y-90450000D02*
X229100000Y-86550000D01*
%TO.C,C_3V-Decoup5*%
X52657836Y-79390000D02*
X52442164Y-79390000D01*
X52657836Y-80110000D02*
X52442164Y-80110000D01*
%TO.C,R_Shield1*%
X58655000Y-41771359D02*
X58655000Y-42078641D01*
X57895000Y-41771359D02*
X57895000Y-42078641D01*
%TO.C,D32*%
X173950000Y-90450000D02*
X173950000Y-86550000D01*
X173950000Y-90450000D02*
X171950000Y-90450000D01*
X171950000Y-90450000D02*
X171950000Y-86550000D01*
%TO.C,D29*%
X152525000Y-129500000D02*
X150525000Y-129500000D01*
X152525000Y-129500000D02*
X152525000Y-125600000D01*
X150525000Y-129500000D02*
X150525000Y-125600000D01*
%TO.C,D55*%
X269200000Y-90450000D02*
X267200000Y-90450000D01*
X269200000Y-90450000D02*
X269200000Y-86550000D01*
X267200000Y-90450000D02*
X267200000Y-86550000D01*
%TO.C,D49*%
X243400000Y-71400000D02*
X243400000Y-67500000D01*
X245400000Y-71400000D02*
X245400000Y-67500000D01*
X245400000Y-71400000D02*
X243400000Y-71400000D01*
D12*
%TO.C,D70*%
X50875000Y-96075000D02*
X51225000Y-96525000D01*
X51225000Y-96525000D02*
X51575000Y-96075000D01*
X51575000Y-96075000D02*
X50875000Y-96075000D01*
G36*
X51225000Y-96525000D02*
G01*
X50875000Y-96075000D01*
X51575000Y-96075000D01*
X51225000Y-96525000D01*
G37*
X51225000Y-96525000D02*
X50875000Y-96075000D01*
X51575000Y-96075000D01*
X51225000Y-96525000D01*
D11*
%TO.C,D24*%
X121575000Y-129500000D02*
X121575000Y-125600000D01*
X121575000Y-129500000D02*
X119575000Y-129500000D01*
X119575000Y-129500000D02*
X119575000Y-125600000D01*
%TO.C,D5*%
X50150000Y-128550000D02*
X48150000Y-128550000D01*
X48150000Y-128550000D02*
X48150000Y-124650000D01*
X50150000Y-128550000D02*
X50150000Y-124650000D01*
%TO.C,Y1*%
X58175000Y-95075000D02*
X58175000Y-91775000D01*
X58175000Y-91775000D02*
X62175000Y-91775000D01*
%TO.C,D23*%
X126350000Y-109500000D02*
X126350000Y-105600000D01*
X126350000Y-109500000D02*
X124350000Y-109500000D01*
X124350000Y-109500000D02*
X124350000Y-105600000D01*
%TO.C,D20*%
X121575000Y-53300000D02*
X121575000Y-49400000D01*
X119575000Y-53300000D02*
X119575000Y-49400000D01*
X121575000Y-53300000D02*
X119575000Y-53300000D01*
%TO.C,D42*%
X202550000Y-109500000D02*
X200550000Y-109500000D01*
X200550000Y-109500000D02*
X200550000Y-105600000D01*
X202550000Y-109500000D02*
X202550000Y-105600000D01*
%TO.C,D64*%
X304125000Y-90475000D02*
X304125000Y-86575000D01*
X304125000Y-90475000D02*
X302125000Y-90475000D01*
X302125000Y-90475000D02*
X302125000Y-86575000D01*
%TO.C,D65*%
X312075000Y-52350000D02*
X310075000Y-52350000D01*
X312075000Y-52350000D02*
X312075000Y-48450000D01*
X310075000Y-52350000D02*
X310075000Y-48450000D01*
%TO.C,D16*%
X102525000Y-53300000D02*
X100525000Y-53300000D01*
X102525000Y-53300000D02*
X102525000Y-49400000D01*
X100525000Y-53300000D02*
X100525000Y-49400000D01*
%TO.C,D56*%
X257700000Y-109500000D02*
X257700000Y-105600000D01*
X259700000Y-109500000D02*
X257700000Y-109500000D01*
X259700000Y-109500000D02*
X259700000Y-105600000D01*
%TO.C,D27*%
X154900000Y-90450000D02*
X154900000Y-86550000D01*
X154900000Y-90450000D02*
X152900000Y-90450000D01*
X152900000Y-90450000D02*
X152900000Y-86550000D01*
%TO.C,U3*%
X46340000Y-57225000D02*
X46340000Y-57875000D01*
X46340000Y-57225000D02*
X46340000Y-56575000D01*
X49460000Y-57225000D02*
X49460000Y-56575000D01*
X49460000Y-57225000D02*
X49460000Y-58900000D01*
%TO.C,D59*%
X283500000Y-71400000D02*
X283500000Y-67500000D01*
X283500000Y-71400000D02*
X281500000Y-71400000D01*
X281500000Y-71400000D02*
X281500000Y-67500000D01*
D12*
%TO.C,D82*%
X286775000Y-126325000D02*
X287225000Y-125975000D01*
X287225000Y-125975000D02*
X286775000Y-125625000D01*
X286775000Y-125625000D02*
X286775000Y-126325000D01*
G36*
X287225000Y-125975000D02*
G01*
X286775000Y-126325000D01*
X286775000Y-125625000D01*
X287225000Y-125975000D01*
G37*
X287225000Y-125975000D02*
X286775000Y-126325000D01*
X286775000Y-125625000D01*
X287225000Y-125975000D01*
%TO.C,D81*%
X281550000Y-48325000D02*
X281100000Y-48675000D01*
X281100000Y-48675000D02*
X281550000Y-49025000D01*
X281550000Y-49025000D02*
X281550000Y-48325000D01*
G36*
X281550000Y-49025000D02*
G01*
X281100000Y-48675000D01*
X281550000Y-48325000D01*
X281550000Y-49025000D01*
G37*
X281550000Y-49025000D02*
X281100000Y-48675000D01*
X281550000Y-48325000D01*
X281550000Y-49025000D01*
D11*
%TO.C,D58*%
X273975000Y-53300000D02*
X273975000Y-49400000D01*
X273975000Y-53300000D02*
X271975000Y-53300000D01*
X271975000Y-53300000D02*
X271975000Y-49400000D01*
%TO.C,C_3V-Decoup3*%
X58815000Y-74082836D02*
X58815000Y-73867164D01*
X59535000Y-74082836D02*
X59535000Y-73867164D01*
%TO.C,D57*%
X259675000Y-129500000D02*
X257675000Y-129500000D01*
X257675000Y-129500000D02*
X257675000Y-125600000D01*
X259675000Y-129500000D02*
X259675000Y-125600000D01*
D12*
%TO.C,D73*%
X110100000Y-48325000D02*
X109650000Y-48675000D01*
X109650000Y-48675000D02*
X110100000Y-49025000D01*
X110100000Y-49025000D02*
X110100000Y-48325000D01*
G36*
X110100000Y-49025000D02*
G01*
X109650000Y-48675000D01*
X110100000Y-48325000D01*
X110100000Y-49025000D01*
G37*
X110100000Y-49025000D02*
X109650000Y-48675000D01*
X110100000Y-48325000D01*
X110100000Y-49025000D01*
D11*
%TO.C,D43*%
X216825000Y-53300000D02*
X214825000Y-53300000D01*
X216825000Y-53300000D02*
X216825000Y-49400000D01*
X214825000Y-53300000D02*
X214825000Y-49400000D01*
%TO.C,D68*%
X307300000Y-128550000D02*
X307300000Y-124650000D01*
X307300000Y-128550000D02*
X305300000Y-128550000D01*
X305300000Y-128550000D02*
X305300000Y-124650000D01*
%TO.C,C_1V-Decoup3*%
X56190000Y-90542164D02*
X56190000Y-90757836D01*
X56910000Y-90542164D02*
X56910000Y-90757836D01*
D12*
%TO.C,D83*%
X302125000Y-75200000D02*
X301775000Y-74750000D01*
X301775000Y-74750000D02*
X301425000Y-75200000D01*
X301425000Y-75200000D02*
X302125000Y-75200000D01*
G36*
X302125000Y-75200000D02*
G01*
X301425000Y-75200000D01*
X301775000Y-74750000D01*
X302125000Y-75200000D01*
G37*
X302125000Y-75200000D02*
X301425000Y-75200000D01*
X301775000Y-74750000D01*
X302125000Y-75200000D01*
D11*
%TO.C,D66*%
X305325000Y-71400000D02*
X305325000Y-67500000D01*
X307325000Y-71400000D02*
X305325000Y-71400000D01*
X307325000Y-71400000D02*
X307325000Y-67500000D01*
%TO.C,D62*%
X281500000Y-129500000D02*
X281500000Y-125600000D01*
X283500000Y-129500000D02*
X281500000Y-129500000D01*
X283500000Y-129500000D02*
X283500000Y-125600000D01*
%TO.C,D18*%
X116800000Y-90450000D02*
X116800000Y-86550000D01*
X116800000Y-90450000D02*
X114800000Y-90450000D01*
X114800000Y-90450000D02*
X114800000Y-86550000D01*
D12*
%TO.C,D80*%
X241445000Y-126325000D02*
X241895000Y-125975000D01*
X241895000Y-125975000D02*
X241445000Y-125625000D01*
X241445000Y-125625000D02*
X241445000Y-126325000D01*
G36*
X241895000Y-125975000D02*
G01*
X241445000Y-126325000D01*
X241445000Y-125625000D01*
X241895000Y-125975000D01*
G37*
X241895000Y-125975000D02*
X241445000Y-126325000D01*
X241445000Y-125625000D01*
X241895000Y-125975000D01*
D11*
%TO.C,C_Shield1*%
X59040000Y-42032836D02*
X59040000Y-41817164D01*
X59760000Y-42032836D02*
X59760000Y-41817164D01*
%TO.C,D33*%
X164450000Y-109500000D02*
X162450000Y-109500000D01*
X164450000Y-109500000D02*
X164450000Y-105600000D01*
X162450000Y-109500000D02*
X162450000Y-105600000D01*
%TO.C,D8*%
X76725000Y-90450000D02*
X76725000Y-86550000D01*
X78725000Y-90450000D02*
X78725000Y-86550000D01*
X78725000Y-90450000D02*
X76725000Y-90450000D01*
%TO.C,U2*%
X76360000Y-68800000D02*
X76360000Y-67125000D01*
X76100000Y-71525000D02*
X76100000Y-68800000D01*
X81550000Y-68800000D02*
X81290000Y-68800000D01*
X81550000Y-71525000D02*
X81550000Y-74250000D01*
X81550000Y-71525000D02*
X81550000Y-68800000D01*
X76100000Y-68800000D02*
X76360000Y-68800000D01*
X76100000Y-71525000D02*
X76100000Y-74250000D01*
X81550000Y-74250000D02*
X81290000Y-74250000D01*
X76100000Y-74250000D02*
X76360000Y-74250000D01*
%TO.C,D44*%
X226350000Y-71400000D02*
X226350000Y-67500000D01*
X224350000Y-71400000D02*
X224350000Y-67500000D01*
X226350000Y-71400000D02*
X224350000Y-71400000D01*
%TO.C,R_RST1*%
X37680000Y-83228641D02*
X37680000Y-82921359D01*
X36920000Y-83228641D02*
X36920000Y-82921359D01*
%TO.C,D53*%
X252925000Y-53300000D02*
X252925000Y-49400000D01*
X254925000Y-53300000D02*
X254925000Y-49400000D01*
X254925000Y-53300000D02*
X252925000Y-53300000D01*
%TO.C,D7*%
X73950000Y-71400000D02*
X73950000Y-67500000D01*
X73950000Y-71400000D02*
X71950000Y-71400000D01*
X71950000Y-71400000D02*
X71950000Y-67500000D01*
%TO.C,F1*%
X47140000Y-52016422D02*
X47140000Y-52533578D01*
X48560000Y-52016422D02*
X48560000Y-52533578D01*
%TO.C,C_3V-Decoup9*%
X65928307Y-85569190D02*
X66080810Y-85721693D01*
X65419190Y-86078307D02*
X65571693Y-86230810D01*
%TO.C,D60*%
X288275000Y-90450000D02*
X288275000Y-86550000D01*
X286275000Y-90450000D02*
X286275000Y-86550000D01*
X288275000Y-90450000D02*
X286275000Y-90450000D01*
%TO.C,D31*%
X167200000Y-71400000D02*
X167200000Y-67500000D01*
X169200000Y-71400000D02*
X167200000Y-71400000D01*
X169200000Y-71400000D02*
X169200000Y-67500000D01*
%TO.C,D11*%
X88225000Y-109500000D02*
X88225000Y-105600000D01*
X86225000Y-109500000D02*
X86225000Y-105600000D01*
X88225000Y-109500000D02*
X86225000Y-109500000D01*
%TO.C,C_3V-Decoup1*%
X46557836Y-60390000D02*
X46342164Y-60390000D01*
X46557836Y-61110000D02*
X46342164Y-61110000D01*
%TO.C,D41*%
X210075000Y-90450000D02*
X210075000Y-86550000D01*
X212075000Y-90450000D02*
X210075000Y-90450000D01*
X212075000Y-90450000D02*
X212075000Y-86550000D01*
D12*
%TO.C,D69*%
X45125000Y-73350000D02*
X45475000Y-73800000D01*
X45475000Y-73800000D02*
X45825000Y-73350000D01*
X45825000Y-73350000D02*
X45125000Y-73350000D01*
G36*
X45475000Y-73800000D02*
G01*
X45125000Y-73350000D01*
X45825000Y-73350000D01*
X45475000Y-73800000D01*
G37*
X45475000Y-73800000D02*
X45125000Y-73350000D01*
X45825000Y-73350000D01*
X45475000Y-73800000D01*
D11*
%TO.C,R_Flash1*%
X76520000Y-65446359D02*
X76520000Y-65753641D01*
X77280000Y-65446359D02*
X77280000Y-65753641D01*
%TO.C,D17*%
X110050000Y-71400000D02*
X110050000Y-67500000D01*
X112050000Y-71400000D02*
X110050000Y-71400000D01*
X112050000Y-71400000D02*
X112050000Y-67500000D01*
%TD*%
%LPC*%
D13*
%TO.C,1.50u*%
X40957500Y-125412500D03*
D14*
X46037500Y-125412500D03*
D13*
X51117500Y-125412500D03*
D15*
X43537500Y-121412500D03*
D16*
X42882501Y-122142500D03*
D15*
X48577500Y-120332500D03*
D17*
X48557500Y-120622500D03*
%TD*%
D14*
%TO.C,T*%
X146050000Y-68262500D03*
D13*
X151130000Y-68262500D03*
X140970000Y-68262500D03*
D16*
X142895001Y-64992500D03*
D15*
X143550000Y-64262500D03*
X148590000Y-63182500D03*
D17*
X148570000Y-63472500D03*
%TD*%
D13*
%TO.C,Tab*%
X40957500Y-68262500D03*
X51117500Y-68262500D03*
D14*
X46037500Y-68262500D03*
D15*
X43537500Y-64262500D03*
D16*
X42882501Y-64992500D03*
D17*
X48557500Y-63472500D03*
D15*
X48577500Y-63182500D03*
%TD*%
D14*
%TO.C,[*%
X260350000Y-68262500D03*
D13*
X255270000Y-68262500D03*
X265430000Y-68262500D03*
D15*
X257850000Y-64262500D03*
D16*
X257195001Y-64992500D03*
D15*
X262890000Y-63182500D03*
D17*
X262870000Y-63472500D03*
%TD*%
D14*
%TO.C,1.50u*%
X255587500Y-125412500D03*
D13*
X250507500Y-125412500D03*
X260667500Y-125412500D03*
D15*
X253087500Y-121412500D03*
D16*
X252432501Y-122142500D03*
D17*
X258107500Y-120622500D03*
D15*
X258127500Y-120332500D03*
%TD*%
D13*
%TO.C,R*%
X121920000Y-68262500D03*
D14*
X127000000Y-68262500D03*
D13*
X132080000Y-68262500D03*
D16*
X123845001Y-64992500D03*
D15*
X124500000Y-64262500D03*
X129540000Y-63182500D03*
D17*
X129520000Y-63472500D03*
%TD*%
D13*
%TO.C,<*%
X212407500Y-106362500D03*
X222567500Y-106362500D03*
D14*
X217487500Y-106362500D03*
D15*
X214987500Y-102362500D03*
D16*
X214332501Y-103092500D03*
D15*
X220027500Y-101282500D03*
D17*
X220007500Y-101572500D03*
%TD*%
D14*
%TO.C,Stepped*%
X43656250Y-87312500D03*
D13*
X48736250Y-87312500D03*
X38576250Y-87312500D03*
D16*
X40501251Y-84042500D03*
D15*
X41156250Y-83312500D03*
X46196250Y-82232500D03*
D17*
X46176250Y-82522500D03*
D18*
X44926250Y-92392500D03*
D19*
X42386250Y-92392500D03*
%TD*%
D13*
%TO.C,S*%
X88582500Y-87312500D03*
X98742500Y-87312500D03*
D14*
X93662500Y-87312500D03*
D16*
X90507501Y-84042500D03*
D15*
X91162500Y-83312500D03*
X96202500Y-82232500D03*
D17*
X96182500Y-82522500D03*
%TD*%
D13*
%TO.C,B*%
X165417500Y-106362500D03*
D14*
X160337500Y-106362500D03*
D13*
X155257500Y-106362500D03*
D16*
X157182501Y-103092500D03*
D15*
X157837500Y-102362500D03*
D17*
X162857500Y-101572500D03*
D15*
X162877500Y-101282500D03*
%TD*%
D13*
%TO.C,H*%
X164782500Y-87312500D03*
X174942500Y-87312500D03*
D14*
X169862500Y-87312500D03*
D16*
X166707501Y-84042500D03*
D15*
X167362500Y-83312500D03*
D17*
X172382500Y-82522500D03*
D15*
X172402500Y-82232500D03*
%TD*%
D13*
%TO.C,D*%
X117792500Y-87312500D03*
X107632500Y-87312500D03*
D14*
X112712500Y-87312500D03*
D15*
X110212500Y-83312500D03*
D16*
X109557501Y-84042500D03*
D17*
X115232500Y-82522500D03*
D15*
X115252500Y-82232500D03*
%TD*%
D13*
%TO.C,J*%
X183832500Y-87312500D03*
D14*
X188912500Y-87312500D03*
D13*
X193992500Y-87312500D03*
D16*
X185757501Y-84042500D03*
D15*
X186412500Y-83312500D03*
D17*
X191432500Y-82522500D03*
D15*
X191452500Y-82232500D03*
%TD*%
D13*
%TO.C,ISO*%
X289242500Y-87312500D03*
D14*
X284162500Y-87312500D03*
D13*
X279082500Y-87312500D03*
D15*
X281662500Y-83312500D03*
D16*
X281007501Y-84042500D03*
D15*
X286702500Y-82232500D03*
D17*
X286682500Y-82522500D03*
%TD*%
D13*
%TO.C,1u*%
X112395000Y-125412500D03*
D14*
X117475000Y-125412500D03*
D13*
X122555000Y-125412500D03*
D15*
X114975000Y-121412500D03*
D16*
X114320001Y-122142500D03*
D15*
X120015000Y-120332500D03*
D17*
X119995000Y-120622500D03*
%TD*%
D13*
%TO.C,Z*%
X89217500Y-106362500D03*
D14*
X84137500Y-106362500D03*
D13*
X79057500Y-106362500D03*
D16*
X80982501Y-103092500D03*
D15*
X81637500Y-102362500D03*
D17*
X86657500Y-101572500D03*
D15*
X86677500Y-101282500D03*
%TD*%
D13*
%TO.C,1u*%
X302895000Y-106362500D03*
X313055000Y-106362500D03*
D14*
X307975000Y-106362500D03*
D15*
X305475000Y-102362500D03*
D16*
X304820001Y-103092500D03*
D17*
X310495000Y-101572500D03*
D15*
X310515000Y-101282500D03*
%TD*%
D13*
%TO.C,W*%
X93980000Y-68262500D03*
D14*
X88900000Y-68262500D03*
D13*
X83820000Y-68262500D03*
D15*
X86400000Y-64262500D03*
D16*
X85745001Y-64992500D03*
D17*
X91420000Y-63472500D03*
D15*
X91440000Y-63182500D03*
%TD*%
D13*
%TO.C,-*%
X245745000Y-49212500D03*
D14*
X250825000Y-49212500D03*
D13*
X255905000Y-49212500D03*
D15*
X248325000Y-45212500D03*
D16*
X247670001Y-45942500D03*
D15*
X253365000Y-44132500D03*
D17*
X253345000Y-44422500D03*
%TD*%
D14*
%TO.C,1.75u*%
X281781250Y-106362500D03*
D13*
X286861250Y-106362500D03*
X276701250Y-106362500D03*
D16*
X278626251Y-103092500D03*
D15*
X279281250Y-102362500D03*
X284321250Y-101282500D03*
D17*
X284301250Y-101572500D03*
%TD*%
D13*
%TO.C,V*%
X146367500Y-106362500D03*
X136207500Y-106362500D03*
D14*
X141287500Y-106362500D03*
D16*
X138132501Y-103092500D03*
D15*
X138787500Y-102362500D03*
D17*
X143807500Y-101572500D03*
D15*
X143827500Y-101282500D03*
%TD*%
D13*
%TO.C,X*%
X98107500Y-106362500D03*
X108267500Y-106362500D03*
D14*
X103187500Y-106362500D03*
D16*
X100032501Y-103092500D03*
D15*
X100687500Y-102362500D03*
D17*
X105707500Y-101572500D03*
D15*
X105727500Y-101282500D03*
%TD*%
D13*
%TO.C,1u*%
X274320000Y-125412500D03*
X284480000Y-125412500D03*
D14*
X279400000Y-125412500D03*
D16*
X276245001Y-122142500D03*
D15*
X276900000Y-121412500D03*
X281940000Y-120332500D03*
D17*
X281920000Y-120622500D03*
%TD*%
D14*
%TO.C,5*%
X136525000Y-49212500D03*
D13*
X141605000Y-49212500D03*
X131445000Y-49212500D03*
D16*
X133370001Y-45942500D03*
D15*
X134025000Y-45212500D03*
D17*
X139045000Y-44422500D03*
D15*
X139065000Y-44132500D03*
%TD*%
D20*
%TO.C,He*%
X55709904Y-66404904D03*
X57336250Y-70331250D03*
X58962596Y-69657596D03*
X55036250Y-68031250D03*
X292186250Y-70331250D03*
X57336250Y-65731250D03*
X59636250Y-68031250D03*
X58962596Y-66404904D03*
X292186250Y-65731250D03*
D21*
X57336250Y-68031250D03*
D20*
X55709904Y-69657596D03*
D22*
X160336250Y-87131250D03*
D20*
X293635250Y-70413250D03*
D22*
X222636250Y-125331250D03*
D20*
X290714250Y-70413250D03*
D22*
X292186250Y-68031250D03*
D20*
X290841250Y-65714250D03*
X293635250Y-65714250D03*
%TD*%
D13*
%TO.C,G*%
X145732500Y-87312500D03*
D14*
X150812500Y-87312500D03*
D13*
X155892500Y-87312500D03*
D16*
X147657501Y-84042500D03*
D15*
X148312500Y-83312500D03*
D17*
X153332500Y-82522500D03*
D15*
X153352500Y-82232500D03*
%TD*%
D13*
%TO.C,1u*%
X226695000Y-125412500D03*
D14*
X231775000Y-125412500D03*
D13*
X236855000Y-125412500D03*
D15*
X229275000Y-121412500D03*
D16*
X228620001Y-122142500D03*
D17*
X234295000Y-120622500D03*
D15*
X234315000Y-120332500D03*
%TD*%
D13*
%TO.C,:*%
X240982500Y-87312500D03*
X251142500Y-87312500D03*
D14*
X246062500Y-87312500D03*
D15*
X243562500Y-83312500D03*
D16*
X242907501Y-84042500D03*
D17*
X248582500Y-82522500D03*
D15*
X248602500Y-82232500D03*
%TD*%
D13*
%TO.C,8*%
X188595000Y-49212500D03*
X198755000Y-49212500D03*
D14*
X193675000Y-49212500D03*
D16*
X190520001Y-45942500D03*
D15*
X191175000Y-45212500D03*
X196215000Y-44132500D03*
D17*
X196195000Y-44422500D03*
%TD*%
D14*
%TO.C,P*%
X241300000Y-68262500D03*
D13*
X246380000Y-68262500D03*
X236220000Y-68262500D03*
D16*
X238145001Y-64992500D03*
D15*
X238800000Y-64262500D03*
D17*
X243820000Y-63472500D03*
D15*
X243840000Y-63182500D03*
%TD*%
D13*
%TO.C,2.25u*%
X153511250Y-125412500D03*
X143351250Y-125412500D03*
D14*
X160369250Y-117157500D03*
D23*
X160369250Y-132397500D03*
D14*
X136493250Y-117157500D03*
D23*
X136493250Y-132397500D03*
D14*
X148431250Y-125412500D03*
D15*
X145931250Y-121412500D03*
D16*
X145276251Y-122142500D03*
D17*
X150951250Y-120622500D03*
D15*
X150971250Y-120332500D03*
%TD*%
D13*
%TO.C,Q*%
X74930000Y-68262500D03*
D14*
X69850000Y-68262500D03*
D13*
X64770000Y-68262500D03*
D16*
X66695001Y-64992500D03*
D15*
X67350000Y-64262500D03*
X72390000Y-63182500D03*
D17*
X72370000Y-63472500D03*
%TD*%
D13*
%TO.C,1*%
X65405000Y-49212500D03*
D14*
X60325000Y-49212500D03*
D13*
X55245000Y-49212500D03*
D16*
X57170001Y-45942500D03*
D15*
X57825000Y-45212500D03*
D17*
X62845000Y-44422500D03*
D15*
X62865000Y-44132500D03*
%TD*%
D13*
%TO.C,Y*%
X170180000Y-68262500D03*
X160020000Y-68262500D03*
D14*
X165100000Y-68262500D03*
D15*
X162600000Y-64262500D03*
D16*
X161945001Y-64992500D03*
D17*
X167620000Y-63472500D03*
D15*
X167640000Y-63182500D03*
%TD*%
D14*
%TO.C,]*%
X279400000Y-68262500D03*
D13*
X274320000Y-68262500D03*
X284480000Y-68262500D03*
D15*
X276900000Y-64262500D03*
D16*
X276245001Y-64992500D03*
D15*
X281940000Y-63182500D03*
D17*
X281920000Y-63472500D03*
%TD*%
D14*
%TO.C,1u/7u/10u*%
X174625000Y-125412500D03*
D13*
X179705000Y-125412500D03*
X169545000Y-125412500D03*
D16*
X171470001Y-122142500D03*
D15*
X172125000Y-121412500D03*
D17*
X177145000Y-120622500D03*
D15*
X177165000Y-120332500D03*
%TD*%
D13*
%TO.C,9*%
X207645000Y-49212500D03*
X217805000Y-49212500D03*
D14*
X212725000Y-49212500D03*
D16*
X209570001Y-45942500D03*
D15*
X210225000Y-45212500D03*
X215265000Y-44132500D03*
D17*
X215245000Y-44422500D03*
%TD*%
D13*
%TO.C,1u*%
X60007500Y-106362500D03*
X70167500Y-106362500D03*
D14*
X65087500Y-106362500D03*
D16*
X61932501Y-103092500D03*
D15*
X62587500Y-102362500D03*
X67627500Y-101282500D03*
D17*
X67607500Y-101572500D03*
%TD*%
D13*
%TO.C,>*%
X231457500Y-106362500D03*
D14*
X236537500Y-106362500D03*
D13*
X241617500Y-106362500D03*
D15*
X234037500Y-102362500D03*
D16*
X233382501Y-103092500D03*
D15*
X239077500Y-101282500D03*
D17*
X239057500Y-101572500D03*
%TD*%
D23*
%TO.C,2.75u*%
X279368250Y-99377500D03*
D14*
X303244250Y-114617500D03*
D13*
X296386250Y-106362500D03*
D14*
X291306250Y-106362500D03*
X279368250Y-114617500D03*
D13*
X286226250Y-106362500D03*
D23*
X303244250Y-99377500D03*
D15*
X288806250Y-102362500D03*
D16*
X288151251Y-103092500D03*
D15*
X293846250Y-101282500D03*
D17*
X293826250Y-101572500D03*
%TD*%
D13*
%TO.C,MX77*%
X169545000Y-125412500D03*
X179705000Y-125412500D03*
D14*
X241300000Y-117157500D03*
D23*
X241300000Y-132397500D03*
D14*
X174625000Y-125412500D03*
D23*
X107950000Y-132397500D03*
D14*
X107950000Y-117157500D03*
D15*
X172125000Y-121412500D03*
D16*
X171470001Y-122142500D03*
D15*
X177165000Y-120332500D03*
D17*
X177145000Y-120622500D03*
%TD*%
D13*
%TO.C,C*%
X127317500Y-106362500D03*
X117157500Y-106362500D03*
D14*
X122237500Y-106362500D03*
D16*
X119082501Y-103092500D03*
D15*
X119737500Y-102362500D03*
D17*
X124757500Y-101572500D03*
D15*
X124777500Y-101282500D03*
%TD*%
D14*
%TO.C,E*%
X107950000Y-68262500D03*
D13*
X113030000Y-68262500D03*
X102870000Y-68262500D03*
D16*
X104795001Y-64992500D03*
D15*
X105450000Y-64262500D03*
D17*
X110470000Y-63472500D03*
D15*
X110490000Y-63182500D03*
%TD*%
D23*
%TO.C,ANSI*%
X308006750Y-80327500D03*
D13*
X301148750Y-87312500D03*
X290988750Y-87312500D03*
D14*
X284130750Y-95567500D03*
X296068750Y-87312500D03*
X308006750Y-95567500D03*
D23*
X284130750Y-80327500D03*
D15*
X293568750Y-83312500D03*
D16*
X292913751Y-84042500D03*
D15*
X298608750Y-82232500D03*
D17*
X298588750Y-82522500D03*
%TD*%
D13*
%TO.C,A*%
X79692500Y-87312500D03*
D14*
X74612500Y-87312500D03*
D13*
X69532500Y-87312500D03*
D15*
X72112500Y-83312500D03*
D16*
X71457501Y-84042500D03*
D15*
X77152500Y-82232500D03*
D17*
X77132500Y-82522500D03*
%TD*%
D14*
%TO.C,1u*%
X307975000Y-49212500D03*
D13*
X313055000Y-49212500D03*
X302895000Y-49212500D03*
D16*
X304820001Y-45942500D03*
D15*
X305475000Y-45212500D03*
X310515000Y-44132500D03*
D17*
X310495000Y-44422500D03*
%TD*%
D14*
%TO.C,0*%
X231775000Y-49212500D03*
D13*
X236855000Y-49212500D03*
X226695000Y-49212500D03*
D15*
X229275000Y-45212500D03*
D16*
X228620001Y-45942500D03*
D17*
X234295000Y-44422500D03*
D15*
X234315000Y-44132500D03*
%TD*%
D13*
%TO.C,L*%
X221932500Y-87312500D03*
X232092500Y-87312500D03*
D14*
X227012500Y-87312500D03*
D16*
X223857501Y-84042500D03*
D15*
X224512500Y-83312500D03*
X229552500Y-82232500D03*
D17*
X229532500Y-82522500D03*
%TD*%
D14*
%TO.C,I*%
X203200000Y-68262500D03*
D13*
X198120000Y-68262500D03*
X208280000Y-68262500D03*
D15*
X200700000Y-64262500D03*
D16*
X200045001Y-64992500D03*
D15*
X205740000Y-63182500D03*
D17*
X205720000Y-63472500D03*
%TD*%
D14*
%TO.C,M*%
X198437500Y-106362500D03*
D13*
X203517500Y-106362500D03*
X193357500Y-106362500D03*
D15*
X195937500Y-102362500D03*
D16*
X195282501Y-103092500D03*
D15*
X200977500Y-101282500D03*
D17*
X200957500Y-101572500D03*
%TD*%
D14*
%TO.C,2u*%
X286512000Y-57467500D03*
X298450000Y-49212500D03*
D23*
X310388000Y-42227500D03*
X286512000Y-42227500D03*
D13*
X303530000Y-49212500D03*
X293370000Y-49212500D03*
D14*
X310388000Y-57467500D03*
D15*
X295950000Y-45212500D03*
D16*
X295295001Y-45942500D03*
D15*
X300990000Y-44132500D03*
D17*
X300970000Y-44422500D03*
%TD*%
D14*
%TO.C,?*%
X255587500Y-106362500D03*
D13*
X260667500Y-106362500D03*
X250507500Y-106362500D03*
D16*
X252432501Y-103092500D03*
D15*
X253087500Y-102362500D03*
X258127500Y-101282500D03*
D17*
X258107500Y-101572500D03*
%TD*%
D13*
%TO.C,F*%
X126682500Y-87312500D03*
D14*
X131762500Y-87312500D03*
D13*
X136842500Y-87312500D03*
D15*
X129262500Y-83312500D03*
D16*
X128607501Y-84042500D03*
D17*
X134282500Y-82522500D03*
D15*
X134302500Y-82232500D03*
%TD*%
D23*
%TO.C,ISO*%
X312578750Y-65849500D03*
D24*
X305593750Y-72707500D03*
D14*
X305593750Y-77787500D03*
X297338750Y-89725500D03*
D23*
X312578750Y-89725500D03*
D24*
X305593750Y-82867500D03*
D14*
X297338750Y-65849500D03*
D25*
X310383750Y-80307499D03*
D15*
X310673750Y-80327500D03*
X309593750Y-75287500D03*
D26*
X308863754Y-74632495D03*
%TD*%
D13*
%TO.C,1u*%
X64770000Y-125412500D03*
X74930000Y-125412500D03*
D14*
X69850000Y-125412500D03*
D16*
X66695001Y-122142500D03*
D15*
X67350000Y-121412500D03*
D17*
X72370000Y-120622500D03*
D15*
X72390000Y-120332500D03*
%TD*%
D13*
%TO.C,N*%
X184467500Y-106362500D03*
D14*
X179387500Y-106362500D03*
D13*
X174307500Y-106362500D03*
D16*
X176232501Y-103092500D03*
D15*
X176887500Y-102362500D03*
D17*
X181907500Y-101572500D03*
D15*
X181927500Y-101282500D03*
%TD*%
D13*
%TO.C,3*%
X93345000Y-49212500D03*
X103505000Y-49212500D03*
D14*
X98425000Y-49212500D03*
D15*
X95925000Y-45212500D03*
D16*
X95270001Y-45942500D03*
D17*
X100945000Y-44422500D03*
D15*
X100965000Y-44132500D03*
%TD*%
D13*
%TO.C,6*%
X150495000Y-49212500D03*
X160655000Y-49212500D03*
D14*
X155575000Y-49212500D03*
D15*
X153075000Y-45212500D03*
D16*
X152420001Y-45942500D03*
D15*
X158115000Y-44132500D03*
D17*
X158095000Y-44422500D03*
%TD*%
D14*
%TO.C,2.75u*%
X196056250Y-125412500D03*
X184118250Y-117157500D03*
D23*
X184118250Y-132397500D03*
D13*
X190976250Y-125412500D03*
D14*
X207994250Y-117157500D03*
D23*
X207994250Y-132397500D03*
D13*
X201136250Y-125412500D03*
D16*
X192901251Y-122142500D03*
D15*
X193556250Y-121412500D03*
X198596250Y-120332500D03*
D17*
X198576250Y-120622500D03*
%TD*%
D13*
%TO.C,"*%
X270192500Y-87312500D03*
D14*
X265112500Y-87312500D03*
D13*
X260032500Y-87312500D03*
D15*
X262612500Y-83312500D03*
D16*
X261957501Y-84042500D03*
D17*
X267632500Y-82522500D03*
D15*
X267652500Y-82232500D03*
%TD*%
D13*
%TO.C,Esc*%
X36195000Y-49212500D03*
D14*
X41275000Y-49212500D03*
D13*
X46355000Y-49212500D03*
D15*
X38775000Y-45212500D03*
D16*
X38120001Y-45942500D03*
D15*
X43815000Y-44132500D03*
D17*
X43795000Y-44422500D03*
D18*
X40005000Y-54292500D03*
D19*
X42545000Y-54292500D03*
%TD*%
D13*
%TO.C,1.50u*%
X98742500Y-125412500D03*
D14*
X93662500Y-125412500D03*
D13*
X88582500Y-125412500D03*
D15*
X91162500Y-121412500D03*
D16*
X90507501Y-122142500D03*
D15*
X96202500Y-120332500D03*
D17*
X96182500Y-120622500D03*
%TD*%
D14*
%TO.C,=*%
X269875000Y-49212500D03*
D13*
X264795000Y-49212500D03*
X274955000Y-49212500D03*
D16*
X266720001Y-45942500D03*
D15*
X267375000Y-45212500D03*
X272415000Y-44132500D03*
D17*
X272395000Y-44422500D03*
%TD*%
D23*
%TO.C,3u*%
X155575000Y-132397500D03*
D13*
X131445000Y-125412500D03*
D23*
X117475000Y-132397500D03*
D14*
X136525000Y-125412500D03*
D13*
X141605000Y-125412500D03*
D14*
X155575000Y-117157500D03*
X117475000Y-117157500D03*
D16*
X133370001Y-122142500D03*
D15*
X134025000Y-121412500D03*
D17*
X139045000Y-120622500D03*
D15*
X139065000Y-120332500D03*
%TD*%
D13*
%TO.C,1u*%
X294005000Y-49212500D03*
D14*
X288925000Y-49212500D03*
D13*
X283845000Y-49212500D03*
D15*
X286425000Y-45212500D03*
D16*
X285770001Y-45942500D03*
D15*
X291465000Y-44132500D03*
D17*
X291445000Y-44422500D03*
%TD*%
D13*
%TO.C,K*%
X213042500Y-87312500D03*
X202882500Y-87312500D03*
D14*
X207962500Y-87312500D03*
D15*
X205462500Y-83312500D03*
D16*
X204807501Y-84042500D03*
D17*
X210482500Y-82522500D03*
D15*
X210502500Y-82232500D03*
%TD*%
D14*
%TO.C,1.25u*%
X43656250Y-106362500D03*
D13*
X38576250Y-106362500D03*
X48736250Y-106362500D03*
D16*
X40501251Y-103092500D03*
D15*
X41156250Y-102362500D03*
D17*
X46176250Y-101572500D03*
D15*
X46196250Y-101282500D03*
%TD*%
D14*
%TO.C,2*%
X79375000Y-49212500D03*
D13*
X84455000Y-49212500D03*
X74295000Y-49212500D03*
D16*
X76220001Y-45942500D03*
D15*
X76875000Y-45212500D03*
D17*
X81895000Y-44422500D03*
D15*
X81915000Y-44132500D03*
%TD*%
D13*
%TO.C,\u005C*%
X298132500Y-68262500D03*
D14*
X303212500Y-68262500D03*
D13*
X308292500Y-68262500D03*
D15*
X300712500Y-64262500D03*
D16*
X300057501Y-64992500D03*
D17*
X305732500Y-63472500D03*
D15*
X305752500Y-63182500D03*
%TD*%
D13*
%TO.C,3u*%
X217805000Y-125412500D03*
D23*
X193675000Y-132397500D03*
D14*
X212725000Y-125412500D03*
D23*
X231775000Y-132397500D03*
D13*
X207645000Y-125412500D03*
D14*
X193675000Y-117157500D03*
X231775000Y-117157500D03*
D15*
X210225000Y-121412500D03*
D16*
X209570001Y-122142500D03*
D15*
X215265000Y-120332500D03*
D17*
X215245000Y-120622500D03*
%TD*%
D14*
%TO.C,Full*%
X48418750Y-87312500D03*
D13*
X43338750Y-87312500D03*
X53498750Y-87312500D03*
D15*
X45918750Y-83312500D03*
D27*
X45263758Y-84042507D03*
D15*
X50958750Y-82232500D03*
D28*
X50938754Y-82522500D03*
D18*
X47148750Y-92392500D03*
D19*
X49688750Y-92392500D03*
%TD*%
D13*
%TO.C,7*%
X169545000Y-49212500D03*
D14*
X174625000Y-49212500D03*
D13*
X179705000Y-49212500D03*
D16*
X171470001Y-45942500D03*
D15*
X172125000Y-45212500D03*
D17*
X177145000Y-44422500D03*
D15*
X177165000Y-44132500D03*
%TD*%
D13*
%TO.C,O*%
X217170000Y-68262500D03*
X227330000Y-68262500D03*
D14*
X222250000Y-68262500D03*
D16*
X219095001Y-64992500D03*
D15*
X219750000Y-64262500D03*
X224790000Y-63182500D03*
D17*
X224770000Y-63472500D03*
%TD*%
D14*
%TO.C,1.50u*%
X303212500Y-125412500D03*
D13*
X298132500Y-125412500D03*
X308292500Y-125412500D03*
D15*
X300712500Y-121412500D03*
D16*
X300057501Y-122142500D03*
D15*
X305752500Y-120332500D03*
D17*
X305732500Y-120622500D03*
%TD*%
D14*
%TO.C,2.25u*%
X53181250Y-106362500D03*
D23*
X65119250Y-99377500D03*
D14*
X65119250Y-114617500D03*
D23*
X41243250Y-99377500D03*
D13*
X58261250Y-106362500D03*
D14*
X41243250Y-114617500D03*
D13*
X48101250Y-106362500D03*
D15*
X50681250Y-102362500D03*
D16*
X50026251Y-103092500D03*
D17*
X55701250Y-101572500D03*
D15*
X55721250Y-101282500D03*
%TD*%
D13*
%TO.C,MX42*%
X179705000Y-125412500D03*
X169545000Y-125412500D03*
D23*
X231775000Y-132397500D03*
D14*
X174625000Y-125412500D03*
X231775000Y-117157500D03*
X117475000Y-117157500D03*
D23*
X117475000Y-132397500D03*
D15*
X172125000Y-121412500D03*
D16*
X171470001Y-122142500D03*
D17*
X177145000Y-120622500D03*
D15*
X177165000Y-120332500D03*
%TD*%
D14*
%TO.C,4*%
X117475000Y-49212500D03*
D13*
X122555000Y-49212500D03*
X112395000Y-49212500D03*
D16*
X114320001Y-45942500D03*
D15*
X114975000Y-45212500D03*
D17*
X119995000Y-44422500D03*
D15*
X120015000Y-44132500D03*
%TD*%
D13*
%TO.C,U*%
X189230000Y-68262500D03*
X179070000Y-68262500D03*
D14*
X184150000Y-68262500D03*
D16*
X180995001Y-64992500D03*
D15*
X181650000Y-64262500D03*
D17*
X186670000Y-63472500D03*
D15*
X186690000Y-63182500D03*
%TD*%
D29*
%TO.C,U4*%
X51425000Y-51025000D03*
D30*
X51425000Y-52725000D03*
X49425000Y-52725000D03*
X49425000Y-50825000D03*
%TD*%
D31*
%TO.C,D19*%
X106275000Y-108900000D03*
X106275000Y-105600000D03*
%TD*%
D32*
%TO.C,C_3V-Decoup8*%
X57900000Y-90170000D03*
X57900000Y-91130000D03*
%TD*%
D31*
%TO.C,D46*%
X220575000Y-108900000D03*
X220575000Y-105600000D03*
%TD*%
D33*
%TO.C,D74*%
X104735000Y-125975000D03*
D34*
X104735000Y-124875000D03*
X106565000Y-124875000D03*
X106565000Y-125975000D03*
%TD*%
D31*
%TO.C,D15*%
X96775000Y-128900000D03*
X96775000Y-125600000D03*
%TD*%
D35*
%TO.C,D71*%
X70765000Y-48675000D03*
D34*
X70765000Y-49775000D03*
X68935000Y-49775000D03*
X68935000Y-48675000D03*
%TD*%
D31*
%TO.C,D63*%
X291725000Y-53300000D03*
X291725000Y-50000000D03*
%TD*%
%TO.C,D35*%
X187250000Y-70800000D03*
X187250000Y-67500000D03*
%TD*%
D36*
%TO.C,C_1V-Decoup2*%
X60425000Y-75080000D03*
X60425000Y-74120000D03*
%TD*%
D31*
%TO.C,D26*%
X149150000Y-70800000D03*
X149150000Y-67500000D03*
%TD*%
D37*
%TO.C,C_LDO2*%
X46930000Y-59650000D03*
X45970000Y-59650000D03*
%TD*%
D31*
%TO.C,D54*%
X263450000Y-70800000D03*
X263450000Y-67500000D03*
%TD*%
D36*
%TO.C,C_3V-Decoup2*%
X54700000Y-77455000D03*
X54700000Y-76495000D03*
%TD*%
D31*
%TO.C,D34*%
X177725000Y-52700000D03*
X177725000Y-49400000D03*
%TD*%
%TO.C,D50*%
X249175000Y-89875000D03*
X249175000Y-86575000D03*
%TD*%
D36*
%TO.C,C_Flash1*%
X75300000Y-75105000D03*
X75300000Y-74145000D03*
%TD*%
D38*
%TO.C,D84*%
X299000000Y-102890000D03*
D34*
X297900000Y-102890000D03*
X297900000Y-101060000D03*
X299000000Y-101060000D03*
%TD*%
D36*
%TO.C,C_3V-Decoup6*%
X63750000Y-80155000D03*
X63750000Y-79195000D03*
%TD*%
D31*
%TO.C,D48*%
X234875000Y-52700000D03*
X234875000Y-49400000D03*
%TD*%
%TO.C,D22*%
X134875000Y-89850000D03*
X134875000Y-86550000D03*
%TD*%
D36*
%TO.C,C_Crystal2*%
X57300000Y-93905000D03*
X57300000Y-92945000D03*
%TD*%
D31*
%TO.C,D40*%
X206300000Y-70800000D03*
X206300000Y-67500000D03*
%TD*%
D39*
%TO.C,R_Crystal1*%
X59075000Y-91135000D03*
X59075000Y-90115000D03*
%TD*%
D31*
%TO.C,D14*%
X96775000Y-89850000D03*
X96775000Y-86550000D03*
%TD*%
D40*
%TO.C,R_LED1*%
X41040000Y-56770000D03*
X40020000Y-56770000D03*
%TD*%
D33*
%TO.C,D78*%
X186960000Y-125975000D03*
D34*
X186960000Y-124875000D03*
X188790000Y-124875000D03*
X188790000Y-125975000D03*
%TD*%
D31*
%TO.C,D10*%
X72950000Y-128900000D03*
X72950000Y-125600000D03*
%TD*%
D35*
%TO.C,D77*%
X204115000Y-48650000D03*
D34*
X204115000Y-49750000D03*
X202285000Y-49750000D03*
X202285000Y-48650000D03*
%TD*%
D31*
%TO.C,D61*%
X294400000Y-108900000D03*
X294400000Y-105600000D03*
%TD*%
D41*
%TO.C,USB1*%
X53340000Y-44637500D03*
X47560000Y-44637500D03*
D42*
X47225000Y-46082500D03*
X48000000Y-46082500D03*
D43*
X48700000Y-46082500D03*
X49200000Y-46082500D03*
X49700000Y-46082500D03*
X50200000Y-46082500D03*
X50700000Y-46082500D03*
X51200000Y-46082500D03*
X51700000Y-46082500D03*
X52200000Y-46082500D03*
D42*
X52900000Y-46082500D03*
X53675000Y-46082500D03*
D44*
X46130000Y-40987500D03*
D45*
X54770000Y-45167500D03*
X46130000Y-45167500D03*
D44*
X54770000Y-40987500D03*
%TD*%
D31*
%TO.C,D9*%
X68200000Y-108900000D03*
X68200000Y-105600000D03*
%TD*%
%TO.C,D37*%
X182500000Y-108900000D03*
X182500000Y-105600000D03*
%TD*%
D36*
%TO.C,C_1V-Decoup1*%
X55850000Y-76455000D03*
X55850000Y-75495000D03*
%TD*%
D46*
%TO.C,U1*%
X62537500Y-80650000D03*
X62537500Y-81050000D03*
X62537500Y-81450000D03*
X62537500Y-81850000D03*
X62537500Y-82250000D03*
X62537500Y-82650000D03*
X62537500Y-83050000D03*
X62537500Y-83450000D03*
X62537500Y-83850000D03*
X62537500Y-84250000D03*
X62537500Y-84650000D03*
X62537500Y-85050000D03*
X62537500Y-85450000D03*
X62537500Y-85850000D03*
D47*
X61700000Y-86687500D03*
X61300000Y-86687500D03*
X60900000Y-86687500D03*
X60500000Y-86687500D03*
X60100000Y-86687500D03*
X59700000Y-86687500D03*
X59300000Y-86687500D03*
X58900000Y-86687500D03*
X58500000Y-86687500D03*
X58100000Y-86687500D03*
X57700000Y-86687500D03*
X57300000Y-86687500D03*
X56900000Y-86687500D03*
X56500000Y-86687500D03*
D46*
X55662500Y-85850000D03*
X55662500Y-85450000D03*
X55662500Y-85050000D03*
X55662500Y-84650000D03*
X55662500Y-84250000D03*
X55662500Y-83850000D03*
X55662500Y-83450000D03*
X55662500Y-83050000D03*
X55662500Y-82650000D03*
X55662500Y-82250000D03*
X55662500Y-81850000D03*
X55662500Y-81450000D03*
X55662500Y-81050000D03*
X55662500Y-80650000D03*
D47*
X56500000Y-79812500D03*
X56900000Y-79812500D03*
X57300000Y-79812500D03*
X57700000Y-79812500D03*
X58100000Y-79812500D03*
X58500000Y-79812500D03*
X58900000Y-79812500D03*
X59300000Y-79812500D03*
X59700000Y-79812500D03*
X60100000Y-79812500D03*
X60500000Y-79812500D03*
X60900000Y-79812500D03*
X61300000Y-79812500D03*
X61700000Y-79812500D03*
D48*
X59100000Y-83250000D03*
%TD*%
D31*
%TO.C,D39*%
X196775000Y-52700000D03*
X196775000Y-49400000D03*
%TD*%
%TO.C,D2*%
X49125000Y-70800000D03*
X49125000Y-67500000D03*
%TD*%
%TO.C,D47*%
X215825000Y-128900000D03*
X215825000Y-125600000D03*
%TD*%
%TO.C,D6*%
X63425000Y-51750000D03*
X63425000Y-48450000D03*
%TD*%
D37*
%TO.C,C_3V-Decoup7*%
X53030000Y-78700000D03*
X52070000Y-78700000D03*
%TD*%
D49*
%TO.C,R_LED2*%
X44890000Y-89760000D03*
X44890000Y-90780000D03*
%TD*%
D33*
%TO.C,D72*%
X59410000Y-125975000D03*
D34*
X59410000Y-124875000D03*
X61240000Y-124875000D03*
X61240000Y-125975000D03*
%TD*%
D35*
%TO.C,D75*%
X146965000Y-48675000D03*
D34*
X146965000Y-49775000D03*
X145135000Y-49775000D03*
X145135000Y-48675000D03*
%TD*%
D37*
%TO.C,C_LDO1*%
X47930000Y-54625000D03*
X46970000Y-54625000D03*
%TD*%
D50*
%TO.C,J2*%
X34550000Y-81925000D03*
D51*
X34550000Y-84465000D03*
X34550000Y-87005000D03*
X34550000Y-89545000D03*
X34550000Y-92085000D03*
%TD*%
D31*
%TO.C,D1*%
X44375000Y-51750000D03*
X44375000Y-48450000D03*
%TD*%
%TO.C,D67*%
X311075000Y-108900000D03*
X311075000Y-105600000D03*
%TD*%
%TO.C,D13*%
X92000000Y-70800000D03*
X92000000Y-67500000D03*
%TD*%
D49*
%TO.C,R_DATA2*%
X56925000Y-75240000D03*
X56925000Y-76260000D03*
%TD*%
D40*
%TO.C,R_USB1*%
X49460000Y-48900000D03*
X48440000Y-48900000D03*
%TD*%
D37*
%TO.C,C_3V-Decoup4*%
X53880000Y-84250000D03*
X52920000Y-84250000D03*
%TD*%
D31*
%TO.C,D21*%
X130100000Y-70800000D03*
X130100000Y-67500000D03*
%TD*%
%TO.C,D52*%
X234875000Y-128900000D03*
X234875000Y-125600000D03*
%TD*%
D49*
%TO.C,R_DATA1*%
X58075000Y-75240000D03*
X58075000Y-76260000D03*
%TD*%
D33*
%TO.C,D76*%
X155685000Y-125975000D03*
D34*
X155685000Y-124875000D03*
X157515000Y-124875000D03*
X157515000Y-125975000D03*
%TD*%
D35*
%TO.C,D79*%
X242215000Y-48675000D03*
D34*
X242215000Y-49775000D03*
X240385000Y-49775000D03*
X240385000Y-48675000D03*
%TD*%
D31*
%TO.C,D4*%
X56275000Y-108900000D03*
X56275000Y-105600000D03*
%TD*%
%TO.C,D3*%
X51525000Y-89850000D03*
X51525000Y-86550000D03*
%TD*%
%TO.C,D36*%
X192025000Y-89850000D03*
X192025000Y-86550000D03*
%TD*%
%TO.C,D12*%
X82475000Y-52700000D03*
X82475000Y-49400000D03*
%TD*%
%TO.C,D25*%
X139625000Y-52700000D03*
X139625000Y-49400000D03*
%TD*%
D50*
%TO.C,SW1*%
X78175000Y-63025000D03*
D51*
X75635000Y-63025000D03*
%TD*%
D31*
%TO.C,D30*%
X158675000Y-52700000D03*
X158675000Y-49400000D03*
%TD*%
%TO.C,D51*%
X239650000Y-108900000D03*
X239650000Y-105600000D03*
%TD*%
D52*
%TO.C,J1*%
X56050000Y-58750000D03*
X56050000Y-59750000D03*
X56050000Y-60750000D03*
X56050000Y-61750000D03*
D53*
X59925000Y-57450000D03*
X59925000Y-63050000D03*
%TD*%
D54*
%TO.C,R_USB2*%
X52265000Y-48600000D03*
X53285000Y-48600000D03*
%TD*%
D31*
%TO.C,D28*%
X144400000Y-108900000D03*
X144400000Y-105600000D03*
%TD*%
%TO.C,D38*%
X177725000Y-128900000D03*
X177725000Y-125600000D03*
%TD*%
D32*
%TO.C,C_Crystal1*%
X63400000Y-92945000D03*
X63400000Y-93905000D03*
%TD*%
D31*
%TO.C,D45*%
X230100000Y-89850000D03*
X230100000Y-86550000D03*
%TD*%
D37*
%TO.C,C_3V-Decoup5*%
X53030000Y-79750000D03*
X52070000Y-79750000D03*
%TD*%
D49*
%TO.C,R_Shield1*%
X58275000Y-41415000D03*
X58275000Y-42435000D03*
%TD*%
D31*
%TO.C,D32*%
X172950000Y-89850000D03*
X172950000Y-86550000D03*
%TD*%
%TO.C,D29*%
X151525000Y-128900000D03*
X151525000Y-125600000D03*
%TD*%
%TO.C,D55*%
X268200000Y-89850000D03*
X268200000Y-86550000D03*
%TD*%
%TO.C,D49*%
X244400000Y-70800000D03*
X244400000Y-67500000D03*
%TD*%
D55*
%TO.C,D70*%
X51225000Y-97310000D03*
D34*
X52325000Y-97310000D03*
X52325000Y-99140000D03*
X51225000Y-99140000D03*
%TD*%
D31*
%TO.C,D24*%
X120575000Y-128900000D03*
X120575000Y-125600000D03*
%TD*%
%TO.C,D5*%
X49150000Y-127950000D03*
X49150000Y-124650000D03*
%TD*%
D56*
%TO.C,Y1*%
X59075000Y-92575000D03*
X61275000Y-92575000D03*
X61275000Y-94275000D03*
X59075000Y-94275000D03*
%TD*%
D31*
%TO.C,D23*%
X125350000Y-108900000D03*
X125350000Y-105600000D03*
%TD*%
%TO.C,D20*%
X120575000Y-52700000D03*
X120575000Y-49400000D03*
%TD*%
%TO.C,D42*%
X201550000Y-108900000D03*
X201550000Y-105600000D03*
%TD*%
%TO.C,D64*%
X303125000Y-89875000D03*
X303125000Y-86575000D03*
%TD*%
%TO.C,D65*%
X311075000Y-51750000D03*
X311075000Y-48450000D03*
%TD*%
%TO.C,D16*%
X101525000Y-52700000D03*
X101525000Y-49400000D03*
%TD*%
%TO.C,D56*%
X258700000Y-108900000D03*
X258700000Y-105600000D03*
%TD*%
%TO.C,D27*%
X153900000Y-89850000D03*
X153900000Y-86550000D03*
%TD*%
D57*
%TO.C,U3*%
X48850000Y-58162500D03*
X46950000Y-58162500D03*
X47900000Y-56287500D03*
%TD*%
D31*
%TO.C,D59*%
X282500000Y-70800000D03*
X282500000Y-67500000D03*
%TD*%
D33*
%TO.C,D82*%
X288010000Y-125975000D03*
D34*
X288010000Y-124875000D03*
X289840000Y-124875000D03*
X289840000Y-125975000D03*
%TD*%
D35*
%TO.C,D81*%
X280315000Y-48675000D03*
D34*
X280315000Y-49775000D03*
X278485000Y-49775000D03*
X278485000Y-48675000D03*
%TD*%
D31*
%TO.C,D58*%
X272975000Y-52700000D03*
X272975000Y-49400000D03*
%TD*%
D36*
%TO.C,C_3V-Decoup3*%
X59175000Y-74455000D03*
X59175000Y-73495000D03*
%TD*%
D31*
%TO.C,D57*%
X258675000Y-128900000D03*
X258675000Y-125600000D03*
%TD*%
D35*
%TO.C,D73*%
X108865000Y-48675000D03*
D34*
X108865000Y-49775000D03*
X107035000Y-49775000D03*
X107035000Y-48675000D03*
%TD*%
D31*
%TO.C,D43*%
X215825000Y-52700000D03*
X215825000Y-49400000D03*
%TD*%
%TO.C,D68*%
X306300000Y-127950000D03*
X306300000Y-124650000D03*
%TD*%
D32*
%TO.C,C_1V-Decoup3*%
X56550000Y-90170000D03*
X56550000Y-91130000D03*
%TD*%
D38*
%TO.C,D83*%
X301775000Y-73965000D03*
D34*
X300675000Y-73965000D03*
X300675000Y-72135000D03*
X301775000Y-72135000D03*
%TD*%
D31*
%TO.C,D66*%
X306325000Y-70800000D03*
X306325000Y-67500000D03*
%TD*%
%TO.C,D62*%
X282500000Y-128900000D03*
X282500000Y-125600000D03*
%TD*%
%TO.C,D18*%
X115800000Y-89850000D03*
X115800000Y-86550000D03*
%TD*%
D33*
%TO.C,D80*%
X242680000Y-125975000D03*
D34*
X242680000Y-124875000D03*
X244510000Y-124875000D03*
X244510000Y-125975000D03*
%TD*%
D36*
%TO.C,C_Shield1*%
X59400000Y-42405000D03*
X59400000Y-41445000D03*
%TD*%
D31*
%TO.C,D33*%
X163450000Y-108900000D03*
X163450000Y-105600000D03*
%TD*%
%TO.C,D8*%
X77725000Y-89850000D03*
X77725000Y-86550000D03*
%TD*%
D58*
%TO.C,U2*%
X76920000Y-67925000D03*
X78190000Y-67925000D03*
X79460000Y-67925000D03*
X80730000Y-67925000D03*
X80730000Y-75125000D03*
X79460000Y-75125000D03*
X78190000Y-75125000D03*
X76920000Y-75125000D03*
%TD*%
D31*
%TO.C,D44*%
X225350000Y-70800000D03*
X225350000Y-67500000D03*
%TD*%
D39*
%TO.C,R_RST1*%
X37300000Y-83585000D03*
X37300000Y-82565000D03*
%TD*%
D31*
%TO.C,D53*%
X253925000Y-52700000D03*
X253925000Y-49400000D03*
%TD*%
%TO.C,D7*%
X72950000Y-70800000D03*
X72950000Y-67500000D03*
%TD*%
D59*
%TO.C,F1*%
X47850000Y-51337500D03*
X47850000Y-53212500D03*
%TD*%
D60*
%TO.C,C_3V-Decoup9*%
X65410589Y-85560589D03*
X66089411Y-86239411D03*
%TD*%
D31*
%TO.C,D60*%
X287275000Y-89850000D03*
X287275000Y-86550000D03*
%TD*%
%TO.C,D31*%
X168200000Y-70800000D03*
X168200000Y-67500000D03*
%TD*%
%TO.C,D11*%
X87225000Y-108900000D03*
X87225000Y-105600000D03*
%TD*%
D37*
%TO.C,C_3V-Decoup1*%
X46930000Y-60750000D03*
X45970000Y-60750000D03*
%TD*%
D31*
%TO.C,D41*%
X211075000Y-89850000D03*
X211075000Y-86550000D03*
%TD*%
D55*
%TO.C,D69*%
X45475000Y-74585000D03*
D34*
X46575000Y-74585000D03*
X46575000Y-76415000D03*
X45475000Y-76415000D03*
%TD*%
D49*
%TO.C,R_Flash1*%
X76900000Y-65090000D03*
X76900000Y-66110000D03*
%TD*%
D31*
%TO.C,D17*%
X111050000Y-70800000D03*
X111050000Y-67500000D03*
%TD*%
M02*
